<svg width="24" height="24" viewBox="0 0 24 24" fill="none" xmlns="http://www.w3.org/2000/svg">
<path d="M8.51236 22.575C8.92486 22.65 9.37486 22.6875 9.78736 22.6875C9.93736 22.6875 10.0874 22.6875 10.1999 22.6875C11.7749 22.6125 13.1999 21.9375 14.2874 20.8125C14.4374 20.8125 14.5499 20.8125 14.6999 20.8125C17.0249 20.6625 19.0499 19.3125 20.0624 17.1375C21.0749 14.925 20.8499 12.3375 19.3874 10.425L14.0999 3.29999L11.2499 7.34999L9.63736 5.17499L4.49985 12.4125C3.18735 14.2875 2.92485 16.6125 3.78735 18.75C4.61235 20.775 6.37486 22.2 8.51236 22.575ZM14.1374 4.57499L18.8249 10.875C20.0999 12.6 20.3249 14.8875 19.4249 16.8375C18.5624 18.6375 16.9499 19.8375 14.9999 20.0625C15.0374 20.025 15.0749 19.95 15.1124 19.9125C15.1499 19.8375 15.1874 19.8 15.2249 19.725C15.2999 19.65 15.3374 19.5375 15.3749 19.4625C15.4124 19.3875 15.4499 19.3125 15.4874 19.275C15.5249 19.1625 15.5999 19.0875 15.6374 18.975C15.6749 18.9 15.7124 18.825 15.7124 18.7875C15.7499 18.675 15.7874 18.5625 15.8249 18.45C15.8624 18.375 15.8624 18.3375 15.8999 18.2625C15.9374 18.1125 16.0124 17.925 16.0499 17.775C16.0499 17.7375 16.0499 17.7375 16.0499 17.7C16.0874 17.55 16.1249 17.4 16.1249 17.25C16.1249 17.175 16.1249 17.1 16.1624 17.0625C16.1624 16.95 16.1999 16.8375 16.1999 16.725C16.1999 16.65 16.1999 16.575 16.1999 16.5C16.1999 16.3875 16.1999 16.275 16.1999 16.2C16.1999 16.125 16.1999 16.05 16.1999 15.975C16.1999 15.8625 16.1999 15.7875 16.1624 15.675C16.1624 15.6 16.1624 15.525 16.1249 15.45C16.1249 15.3375 16.0874 15.2625 16.0874 15.15C16.0874 15.075 16.0499 15 16.0499 14.925C16.0124 14.8125 16.0124 14.7375 15.9749 14.625C15.9374 14.55 15.9374 14.475 15.8999 14.4C15.8624 14.2875 15.8249 14.2125 15.7874 14.1C15.7499 14.025 15.7499 13.95 15.7124 13.875C15.6749 13.7625 15.6374 13.6875 15.5624 13.575C15.5249 13.5 15.4874 13.425 15.4499 13.3875C15.4124 13.275 15.3374 13.1625 15.2624 13.0875C15.2249 13.05 15.1874 12.975 15.1499 12.9375C15.0374 12.7875 14.9624 12.6375 14.8499 12.4875L11.6624 8.21249L14.1374 4.57499ZM5.09985 12.8625L9.63736 6.44999L10.9499 8.21249L14.3249 12.7125C16.2374 15.2625 15.5624 18.375 13.9124 20.175C12.9374 21.225 11.6624 21.825 10.1999 21.9375C9.67486 21.975 9.14986 21.9375 8.66235 21.8625C6.74985 21.525 5.24985 20.2875 4.49985 18.4875C3.71235 16.575 3.93735 14.5125 5.09985 12.8625Z" fill="#488FFA"/>
</svg>
