<svg width="24" height="24" viewBox="0 0 24 24" fill="none" xmlns="http://www.w3.org/2000/svg">
<g clip-path="url(#clip0_509_455)">
<path d="M15.5482 13.9276V3.54791C15.5482 1.59149 13.9563 -1.52588e-05 11.9995 -1.52588e-05C10.0432 -1.52588e-05 8.45142 1.59149 8.45142 3.54791V13.9276C7.11744 14.9996 6.33594 16.6101 6.33594 18.3362C6.33594 21.4592 8.87654 24.0001 11.9995 24.0001C15.1227 24.0001 17.6638 21.4594 17.6638 18.3362C17.6638 16.6101 16.8822 14.9996 15.5482 13.9276ZM11.9995 22.0016C9.97845 22.0016 8.33432 20.3572 8.33432 18.336C8.33432 17.0996 8.95635 15.9536 9.99817 15.2709C10.2799 15.0861 10.4498 14.772 10.4498 14.4352V3.54791C10.4498 2.69353 11.145 1.99836 11.9995 1.99836C12.8544 1.99836 13.5498 2.69353 13.5498 3.54791V14.4353C13.5498 14.7723 13.7195 15.0865 14.0015 15.2711C15.0434 15.9537 15.6654 17.0996 15.6654 18.3362C15.6654 20.3573 14.0209 22.0016 11.9995 22.0016Z" fill="black"/>
</g>
<defs>
<clipPath id="clip0_509_455">
<rect width="24" height="24" fill="white"/>
</clipPath>
</defs>
</svg>
