<svg width="24" height="16" viewBox="0 0 24 16" fill="none" xmlns="http://www.w3.org/2000/svg">
<path d="M9.7524 12.1055C8.9256 13.5419 9.4824 14.7215 10.6308 15.3839C11.778 16.0475 13.08 15.9419 13.9092 14.5055C14.736 13.0715 19.9656 0.267462 19.5108 0.00466249C19.056 -0.258138 10.5804 10.6703 9.7524 12.1055ZM12 2.98546C12.5256 2.98546 13.0368 3.02986 13.5372 3.11626C14.0628 2.45746 14.6508 1.73146 15.2232 1.04266C14.1756 0.739467 13.0906 0.585551 12 0.585463C5.2716 0.585463 0 6.26026 0 13.5047C0 13.9499 0.0192 14.3951 0.0588 14.8283C0.1176 15.4895 0.7068 15.9743 1.3596 15.9179C2.0208 15.8567 2.508 15.2759 2.4492 14.6147C2.41643 14.2456 2.40001 13.8752 2.4 13.5047C2.4 7.60546 6.6168 2.98546 12 2.98546ZM20.6628 4.48546C20.328 5.38546 19.974 6.30226 19.662 7.09426C20.88 8.85826 21.6 11.0711 21.6 13.5047C21.6 13.8839 21.582 14.2667 21.5484 14.6363C21.533 14.9459 21.6378 15.2495 21.841 15.4836C22.0442 15.7177 22.3301 15.8641 22.6388 15.8924C22.9475 15.9206 23.2552 15.8283 23.4975 15.6349C23.7398 15.4415 23.8979 15.162 23.9388 14.8547C23.9784 14.4107 24 13.9571 24 13.5047C24 9.95986 22.7364 6.79666 20.6628 4.48546Z" fill="black"/>
</svg>
