<svg width="48" height="36" viewBox="0 0 48 36" fill="none" xmlns="http://www.w3.org/2000/svg">
<rect width="48" height="36" rx="8" fill="#9CC5FF"/>
<path d="M33.7 13.3C33.3 12.9 32.7 12.9 32.3 13.3L26 19.6L21.7 15.3C21.5 15.1 21.3 15 21 15C20.7 15 20.5 15.1 20.3 15.3L14.3 21.3C14.1 21.5 14 21.7 14 22C14 22.6 14.4 23 15 23C15.3 23 15.5 22.9 15.7 22.7L21 17.4L25.3 21.7C25.4 21.8 25.5 21.9 25.6 21.9C25.7 22 25.9 22 26 22C26.2 22 26.5 21.9 26.6 21.7C26.6 21.7 26.6 21.7 26.7 21.7L33.7 14.7C34.1 14.3 34.1 13.7 33.7 13.3Z" fill="black"/>
</svg>
