<svg width="24" height="24" viewBox="0 0 24 24" fill="none" xmlns="http://www.w3.org/2000/svg">
<path d="M3.16158 0.932659C4.63499 0.0608879 6.53677 0.548241 7.40865 2.02153L9.36569 5.33012C9.84506 6.14032 9.84938 7.14702 9.37643 7.96098L8.77779 8.99125C8.48152 9.50115 8.53848 10.1372 8.90768 10.585L8.9985 10.6846L13.0766 14.7637C13.4936 15.1807 14.1234 15.2891 14.6508 15.0469L14.77 14.9844L15.8012 14.3858C16.5609 13.9444 17.4881 13.9184 18.2671 14.3067L18.4311 14.3955L21.7397 16.3536C23.2131 17.2253 23.7011 19.1262 22.8296 20.5997C22.6737 20.8631 22.4793 21.103 22.2534 21.3096C20.6458 22.7797 19.115 23.4381 17.6635 23.2217C14.6888 22.7782 11.2911 20.6862 7.4399 16.9659L7.43307 16.9707L7.11373 16.6475L6.79147 16.3291C3.07577 12.4716 0.984051 9.07344 0.54049 6.09867C0.32407 4.64722 0.98243 3.11649 2.4526 1.50883C2.65912 1.28302 2.89824 1.08852 3.16158 0.932659ZM6.37545 2.63285C5.84107 1.72998 4.67592 1.43068 3.77291 1.96489C3.61143 2.06043 3.46497 2.17994 3.33834 2.3184C2.07578 3.69897 1.57465 4.89351 1.72799 5.92192C2.12603 8.59067 4.08186 11.7851 7.63522 15.4747L8.04537 15.8819L8.63033 16.4444C12.1803 19.8033 15.2559 21.6488 17.8403 22.0342C18.8687 22.1876 20.0632 21.6864 21.4438 20.4239C21.5822 20.2973 21.7008 20.1506 21.7963 19.9893C22.3306 19.0863 22.0321 17.9212 21.1294 17.3868L17.8579 15.4502L17.7319 15.3799C17.3113 15.1703 16.8115 15.186 16.4038 15.4229L15.3227 16.0498L15.1518 16.1368C14.1663 16.5893 12.9993 16.3826 12.229 15.6123L8.10983 11.4922L7.9819 11.3487C7.29199 10.5119 7.19239 9.33066 7.73971 8.38871L8.33932 7.35746C8.5937 6.91926 8.59149 6.37755 8.33346 5.94145L6.37545 2.63285Z" fill="#16631F" fill-opacity="0.65"/>
<path fill-rule="evenodd" clip-rule="evenodd" d="M3.16158 0.932659L2.90698 0.50234L2.90692 0.502371L3.16158 0.932659ZM7.40865 2.02153L7.83901 1.76697L7.83895 1.76688L7.40865 2.02153ZM9.36569 5.33012L8.93533 5.58467L8.93537 5.58473L9.36569 5.33012ZM9.37643 7.96098L8.94411 7.70978L8.94411 7.70978L9.37643 7.96098ZM8.77779 8.99125L9.21011 9.24245L9.21011 9.24245L8.77779 8.99125ZM8.90768 10.585L8.5219 10.9031L8.52981 10.9127L8.5382 10.9219L8.90768 10.585ZM8.9985 10.6846L8.62902 11.0215L8.63677 11.03L8.6449 11.0381L8.9985 10.6846ZM13.0766 14.7637L12.723 15.1172L12.7231 15.1173L13.0766 14.7637ZM14.6508 15.0469L14.8595 15.5013L14.8715 15.4958L14.8831 15.4897L14.6508 15.0469ZM14.77 14.9844L15.0023 15.4272L15.0117 15.4222L15.021 15.4168L14.77 14.9844ZM15.8012 14.3858L16.0523 14.8182L16.0524 14.8181L15.8012 14.3858ZM18.2671 14.3067L18.5052 13.867L18.4977 13.863L18.4901 13.8592L18.2671 14.3067ZM18.4311 14.3955L18.6858 13.9653L18.6776 13.9604L18.6693 13.9559L18.4311 14.3955ZM21.7397 16.3536L21.4851 16.7839L21.4851 16.7839L21.7397 16.3536ZM22.8296 20.5997L23.2599 20.8543L23.2599 20.8542L22.8296 20.5997ZM22.2534 21.3096L22.5908 21.6786L22.5908 21.6786L22.2534 21.3096ZM17.6635 23.2217L17.5898 23.7163L17.5898 23.7163L17.6635 23.2217ZM7.4399 16.9659L7.78729 16.6063L7.48796 16.3171L7.14929 16.559L7.4399 16.9659ZM7.43307 16.9707L7.07737 17.3221L7.37689 17.6253L7.72369 17.3776L7.43307 16.9707ZM7.11373 16.6475L7.46945 16.2961L7.46512 16.2918L7.11373 16.6475ZM6.79147 16.3291L6.43124 16.6761L6.44008 16.6848L6.79147 16.3291ZM0.54049 6.09867L0.0459574 6.17241L0.0459576 6.17241L0.54049 6.09867ZM2.4526 1.50883L2.08363 1.17139L2.08362 1.17141L2.4526 1.50883ZM6.37545 2.63285L6.80575 2.37821L6.80573 2.37818L6.37545 2.63285ZM3.77291 1.96489L3.51833 1.53455L3.5183 1.53457L3.77291 1.96489ZM3.33834 2.3184L2.96938 1.98096L2.96937 1.98097L3.33834 2.3184ZM1.72799 5.92192L1.23346 5.99565L1.23346 5.99568L1.72799 5.92192ZM7.63522 15.4747L7.27499 15.8216L7.28293 15.8295L7.63522 15.4747ZM8.04537 15.8819L7.69304 16.2367L7.69881 16.2423L8.04537 15.8819ZM8.63033 16.4444L8.28376 16.8048L8.28669 16.8076L8.63033 16.4444ZM17.8403 22.0342L17.7665 22.5288L17.7666 22.5288L17.8403 22.0342ZM21.4438 20.4239L21.7812 20.7928L21.7813 20.7928L21.4438 20.4239ZM21.7964 19.9893L22.2266 20.244L22.2267 20.2439L21.7964 19.9893ZM21.1294 17.3868L21.3841 16.9565L21.3841 16.9565L21.1294 17.3868ZM17.8579 15.4502L18.1126 15.0198L18.1016 15.0136L17.8579 15.4502ZM17.7319 15.3799L17.9756 14.9433L17.9654 14.9376L17.9549 14.9324L17.7319 15.3799ZM16.4038 15.4229L16.6546 15.8554L16.655 15.8552L16.4038 15.4229ZM15.3227 16.0498L15.5494 16.4955L15.5616 16.4893L15.5736 16.4824L15.3227 16.0498ZM15.1518 16.1368L15.3605 16.5911L15.3696 16.587L15.3785 16.5824L15.1518 16.1368ZM12.229 15.6123L11.8754 15.9659L11.8754 15.9659L12.229 15.6123ZM8.10983 11.4922L7.73654 11.8249L7.74609 11.8356L7.75623 11.8457L8.10983 11.4922ZM7.9819 11.3487L7.59612 11.6668L7.60222 11.6742L7.60861 11.6813L7.9819 11.3487ZM7.73971 8.38871L7.30746 8.13739L7.30739 8.13751L7.73971 8.38871ZM8.33932 7.35746L8.77156 7.60879L8.77174 7.60849L8.33932 7.35746ZM8.33346 5.94145L8.76378 5.68684L8.76375 5.6868L8.33346 5.94145ZM3.16158 0.932659L3.41619 1.36298C4.65206 0.631748 6.24717 1.04063 6.97836 2.27617L7.40865 2.02153L7.83895 1.76688C6.82637 0.0558512 4.61791 -0.509972 2.90698 0.50234L3.16158 0.932659ZM7.40865 2.02153L6.9783 2.27608L8.93533 5.58467L9.36569 5.33012L9.79604 5.07557L7.83901 1.76697L7.40865 2.02153ZM9.36569 5.33012L8.93537 5.58473C9.32263 6.23925 9.32604 7.05248 8.94411 7.70978L9.37643 7.96098L9.80875 8.21218C10.3727 7.24156 10.3675 6.04139 9.796 5.07551L9.36569 5.33012ZM9.37643 7.96098L8.94411 7.70978L8.34548 8.74006L8.77779 8.99125L9.21011 9.24245L9.80875 8.21218L9.37643 7.96098ZM8.77779 8.99125L8.34548 8.74005C7.94331 9.4322 8.02072 10.2952 8.5219 10.9031L8.90768 10.585L9.29346 10.2669C9.05625 9.97922 9.01973 9.57011 9.21011 9.24245L8.77779 8.99125ZM8.90768 10.585L8.5382 10.9219L8.62902 11.0215L8.9985 10.6846L9.36798 10.3477L9.27716 10.2481L8.90768 10.585ZM8.9985 10.6846L8.6449 11.0381L12.723 15.1172L13.0766 14.7637L13.4302 14.4102L9.35209 10.3311L8.9985 10.6846ZM13.0766 14.7637L12.7231 15.1173C13.2889 15.6831 14.1432 15.8302 14.8595 15.5013L14.6508 15.0469L14.4422 14.5925C14.1036 14.748 13.6984 14.6784 13.4302 14.4102L13.0766 14.7637ZM14.6508 15.0469L14.8831 15.4897L15.0023 15.4272L14.77 14.9844L14.5377 14.5416L14.4186 14.6041L14.6508 15.0469ZM14.77 14.9844L15.021 15.4168L16.0523 14.8182L15.8012 14.3858L15.5502 13.9534L14.519 14.552L14.77 14.9844ZM15.8012 14.3858L16.0524 14.8181C16.666 14.4616 17.4149 14.4406 18.044 14.7542L18.2671 14.3067L18.4901 13.8592C17.5613 13.3962 16.4559 13.4271 15.55 13.9535L15.8012 14.3858ZM18.2671 14.3067L18.0289 14.7463L18.193 14.8352L18.4311 14.3955L18.6693 13.9559L18.5052 13.867L18.2671 14.3067ZM18.4311 14.3955L18.1765 14.8258L21.4851 16.7839L21.7397 16.3536L21.9944 15.9233L18.6858 13.9653L18.4311 14.3955ZM21.7397 16.3536L21.4851 16.7839C22.7209 17.5151 23.1301 19.1094 22.3992 20.3451L22.8296 20.5997L23.2599 20.8542C24.272 19.1431 23.7053 16.9356 21.9943 15.9232L21.7397 16.3536ZM22.8296 20.5997L22.3992 20.345C22.2683 20.5664 22.1051 20.7676 21.9159 20.9406L22.2534 21.3096L22.5908 21.6786C22.8535 21.4384 23.079 21.1599 23.2599 20.8543L22.8296 20.5997ZM22.2534 21.3096L21.916 20.9406C20.3586 22.3648 18.9738 22.9115 17.7373 22.7272L17.6635 23.2217L17.5898 23.7163C19.2561 23.9647 20.933 23.1947 22.5908 21.6786L22.2534 21.3096ZM17.6635 23.2217L17.7373 22.7272C14.9199 22.3071 11.6163 20.3051 7.78729 16.6063L7.4399 16.9659L7.09251 17.3255C10.9659 21.0672 14.4576 23.2492 17.5898 23.7163L17.6635 23.2217ZM7.4399 16.9659L7.14929 16.559L7.14245 16.5639L7.43307 16.9707L7.72369 17.3776L7.73052 17.3727L7.4399 16.9659ZM7.43307 16.9707L7.78876 16.6193L7.46943 16.2961L7.11373 16.6475L6.75804 16.9989L7.07737 17.3221L7.43307 16.9707ZM7.11373 16.6475L7.46512 16.2918L7.14286 15.9734L6.79147 16.3291L6.44008 16.6848L6.76234 17.0032L7.11373 16.6475ZM6.79147 16.3291L7.15158 15.9823C3.45698 12.1467 1.45514 8.84249 1.03502 6.02494L0.54049 6.09867L0.0459576 6.17241C0.512961 9.3044 2.69455 12.7966 6.43136 16.676L6.79147 16.3291ZM0.54049 6.09867L1.03502 6.02494C0.850649 4.7884 1.39734 3.40369 2.82158 1.84625L2.4526 1.50883L2.08362 1.17141C0.567525 2.82929 -0.202509 4.50603 0.0459574 6.17241L0.54049 6.09867ZM2.4526 1.50883L2.82156 1.84627C2.99493 1.65671 3.19557 1.49355 3.41625 1.36295L3.16158 0.932659L2.90692 0.502371C2.60091 0.683482 2.32331 0.909321 2.08363 1.17139L2.4526 1.50883ZM6.37545 2.63285L6.80573 2.37818C6.13082 1.23788 4.65915 0.859658 3.51833 1.53455L3.77291 1.96489L4.02749 2.39522C4.69269 2.0017 5.55131 2.22208 5.94517 2.88753L6.37545 2.63285ZM3.77291 1.96489L3.5183 1.53457C3.31366 1.65565 3.1288 1.80664 2.96938 1.98096L3.33834 2.3184L3.70731 2.65584C3.80114 2.55324 3.9092 2.46521 4.02752 2.3952L3.77291 1.96489ZM3.33834 2.3184L2.96937 1.98097C1.67121 3.40045 1.04666 4.74286 1.23346 5.99565L1.72799 5.92192L2.22252 5.84818C2.10264 5.04415 2.48034 3.99748 3.70731 2.65583L3.33834 2.3184ZM1.72799 5.92192L1.23346 5.99568C1.6552 8.82329 3.70278 12.1123 7.27508 15.8215L7.63522 15.4747L7.99535 15.1278C4.46094 11.458 2.59687 8.35805 2.22252 5.84816L1.72799 5.92192ZM7.63522 15.4747L7.28293 15.8295L7.69309 16.2367L8.04537 15.8819L8.39766 15.5271L7.9875 15.1198L7.63522 15.4747ZM8.04537 15.8819L7.69881 16.2423L8.28377 16.8048L8.63033 16.4444L8.9769 16.084L8.39194 15.5215L8.04537 15.8819ZM8.63033 16.4444L8.28669 16.8076C11.8581 20.1867 15.0269 22.1202 17.7665 22.5288L17.8403 22.0342L17.914 21.5397C15.4848 21.1774 12.5026 19.4199 8.97398 16.0812L8.63033 16.4444ZM17.8403 22.0342L17.7666 22.5288C19.0194 22.7156 20.3618 22.091 21.7812 20.7928L21.4438 20.4239L21.1064 20.0549C19.7647 21.2819 18.7181 21.6596 17.914 21.5397L17.8403 22.0342ZM21.4438 20.4239L21.7813 20.7928C21.9565 20.6325 22.1063 20.4472 22.2266 20.244L21.7964 19.9893L21.3661 19.7346C21.2954 19.8541 21.2078 19.9621 21.1064 20.0549L21.4438 20.4239ZM21.7964 19.9893L22.2267 20.2439C22.9014 19.1034 22.5246 17.6317 21.3841 16.9565L21.1294 17.3868L20.8746 17.817C21.5397 18.2107 21.7598 19.0692 21.366 19.7347L21.7964 19.9893ZM21.1294 17.3868L21.3841 16.9565L18.1126 15.02L17.8579 15.4502L17.6032 15.8805L20.8747 17.817L21.1294 17.3868ZM17.8579 15.4502L18.1016 15.0136L17.9756 14.9433L17.7319 15.3799L17.4882 15.8165L17.6142 15.8868L17.8579 15.4502ZM17.7319 15.3799L17.9549 14.9324C17.3837 14.6477 16.7057 14.6692 16.1526 14.9906L16.4038 15.4229L16.655 15.8552C16.9173 15.7028 17.2389 15.6929 17.5089 15.8274L17.7319 15.3799ZM16.4038 15.4229L16.1529 14.9904L15.0719 15.6173L15.3227 16.0498L15.5736 16.4824L16.6546 15.8554L16.4038 15.4229ZM15.3227 16.0498L15.0961 15.6042L14.9252 15.6911L15.1518 16.1368L15.3785 16.5824L15.5494 16.4955L15.3227 16.0498ZM15.1518 16.1368L14.9432 15.6824C14.1473 16.0478 13.2047 15.8808 12.5825 15.2588L12.229 15.6123L11.8754 15.9659C12.794 16.8843 14.1853 17.1308 15.3605 16.5911L15.1518 16.1368ZM12.229 15.6123L12.5826 15.2588L8.46342 11.1387L8.10983 11.4922L7.75623 11.8457L11.8754 15.9659L12.229 15.6123ZM8.10983 11.4922L8.48311 11.1596L8.35518 11.016L7.9819 11.3487L7.60861 11.6813L7.73654 11.8249L8.10983 11.4922ZM7.9819 11.3487L8.36768 11.0306C7.8104 10.3547 7.73009 9.4005 8.17203 8.63991L7.73971 8.38871L7.30739 8.13751C6.65469 9.26083 6.77357 10.6691 7.59612 11.6668L7.9819 11.3487ZM7.73971 8.38871L8.17195 8.64004L8.77156 7.60879L8.33932 7.35746L7.90707 7.10614L7.30746 8.13739L7.73971 8.38871ZM8.33932 7.35746L8.77174 7.60849C9.11697 7.0138 9.11397 6.2787 8.76378 5.68684L8.33346 5.94145L7.90314 6.19606C8.06901 6.47639 8.07044 6.82472 7.9069 7.10644L8.33932 7.35746ZM8.33346 5.94145L8.76375 5.6868L6.80575 2.37821L6.37545 2.63285L5.94515 2.8875L7.90316 6.19609L8.33346 5.94145Z" fill="#16631F"/>
</svg>
