<svg width="203" height="211" viewBox="0 0 203 211" fill="none" xmlns="http://www.w3.org/2000/svg">
<g filter="url(#filter0_d_11_278)">
<rect x="20" y="10" width="163" height="171" rx="81.5" fill="url(#paint0_linear_11_278)"/>
<path d="M101.5 123.775C94.8809 123.775 89.3614 121.505 84.9416 116.963C80.5218 112.421 78.3109 106.769 78.309 100.005C78.309 97.0091 78.9854 94.0135 80.3382 91.018C81.691 88.0225 83.382 85.1478 85.4112 82.3939C87.4404 79.6399 89.6388 77.0551 92.0062 74.6393C94.3736 72.2236 96.5719 70.1219 98.6011 68.3343C98.9877 67.9478 99.435 67.6704 99.9433 67.5023C100.452 67.3342 100.97 67.2491 101.5 67.2472C102.03 67.2453 102.549 67.3303 103.06 67.5023C103.57 67.6743 104.016 67.9516 104.399 68.3343C106.428 70.1219 108.626 72.2236 110.994 74.6393C113.361 77.0551 115.56 79.6399 117.589 82.3939C119.618 85.1478 121.309 88.0225 122.662 91.018C124.015 94.0135 124.691 97.0091 124.691 100.005C124.691 106.769 122.481 112.421 118.061 116.963C113.641 121.505 108.121 123.775 101.5 123.775ZM101.5 117.978C106.525 117.978 110.68 116.274 113.965 112.867C117.251 109.46 118.893 105.172 118.893 100.005C118.893 96.4776 117.431 92.4916 114.507 88.0467C111.583 83.6017 107.248 78.7461 101.5 73.4798C95.7506 78.7461 91.4148 83.6017 88.4927 88.0467C85.5707 92.4916 84.1087 96.4776 84.1067 100.005C84.1067 105.174 85.7494 109.463 89.0348 112.87C92.3202 116.277 96.4753 117.98 101.5 117.978ZM102.297 115.079C102.877 115.03 103.373 114.8 103.784 114.389C104.196 113.977 104.401 113.482 104.399 112.905C104.399 112.228 104.181 111.685 103.747 111.275C103.312 110.866 102.756 110.684 102.08 110.73C100.099 110.875 97.9972 110.332 95.7747 109.101C93.5522 107.87 92.1511 105.635 91.5713 102.396C91.4747 101.865 91.2215 101.43 90.8118 101.092C90.4021 100.753 89.9306 100.584 89.3972 100.584C88.7208 100.584 88.1652 100.838 87.7303 101.347C87.2955 101.855 87.1505 102.446 87.2955 103.121C88.1168 107.517 90.0494 110.658 93.0933 112.542C96.1371 114.426 99.2051 115.272 102.297 115.079Z" fill="white"/>
</g>
<defs>
<filter id="filter0_d_11_278" x="0" y="0" width="203" height="211" filterUnits="userSpaceOnUse" color-interpolation-filters="sRGB">
<feFlood flood-opacity="0" result="BackgroundImageFix"/>
<feColorMatrix in="SourceAlpha" type="matrix" values="0 0 0 0 0 0 0 0 0 0 0 0 0 0 0 0 0 0 127 0" result="hardAlpha"/>
<feOffset dy="10"/>
<feGaussianBlur stdDeviation="10"/>
<feComposite in2="hardAlpha" operator="out"/>
<feColorMatrix type="matrix" values="0 0 0 0 0 0 0 0 0 0 0 0 0 0 0 0 0 0 0.25 0"/>
<feBlend mode="normal" in2="BackgroundImageFix" result="effect1_dropShadow_11_278"/>
<feBlend mode="normal" in="SourceGraphic" in2="effect1_dropShadow_11_278" result="shape"/>
</filter>
<linearGradient id="paint0_linear_11_278" x1="38.745" y1="45.91" x2="185.523" y2="224.006" gradientUnits="userSpaceOnUse">
<stop stop-color="#198C79"/>
<stop offset="1" stop-color="#AFDEF9"/>
</linearGradient>
</defs>
</svg>
