<svg width="87" height="68" viewBox="0 0 87 68" fill="none" xmlns="http://www.w3.org/2000/svg">
<path fill-rule="evenodd" clip-rule="evenodd" d="M51.3602 50.0006C54.3422 53.1943 55.032 58.0802 52.7338 62.0608C49.9171 66.9394 43.6789 68.6109 38.8003 65.7942C33.9217 62.9776 32.2502 56.7394 35.0668 51.8608C37.3579 47.8926 41.9125 46.0462 46.158 47.011L59.0643 24.2537C59.3912 23.6772 60.1236 23.4749 60.7001 23.8019L63.8315 25.5778C64.408 25.9047 64.6103 26.6371 64.2834 27.2136L51.3602 50.0006ZM46.0003 53.3235C48.0091 54.4833 48.6974 57.0519 47.5376 59.0608C46.3778 61.0696 43.8091 61.7579 41.8003 60.5981C39.7915 59.4383 39.1032 56.8696 40.263 54.8608C41.4228 52.8519 43.9915 52.1637 46.0003 53.3235Z" fill="#327003"/>
<path d="M0.658459 50.7138C0.867993 51.9002 1.12736 53.0789 1.43632 54.2469C1.77533 55.5286 3.13659 56.2171 4.39733 55.8071L32.4651 46.6787C33.7254 46.2688 34.3795 44.9071 34.3165 43.5834C34.2874 42.9717 34.3207 42.3566 34.4171 41.7476C34.5384 40.9822 34.7575 40.2383 35.0672 39.5337L35.0723 39.5221C35.3294 38.9396 35.6484 38.3841 36.0252 37.8654C36.86 36.7164 37.9549 35.7812 39.2204 35.1364C40.4859 34.4916 41.886 34.1555 43.3063 34.1555C44.3253 34.1555 45.3339 34.3285 46.2899 34.6644C46.9152 34.8841 47.6361 34.6577 47.937 34.0672L49.5714 30.8596C49.8723 30.2691 49.639 29.5416 49.0263 29.2889C47.2157 28.542 45.2726 28.1555 43.3063 28.1555C40.9392 28.1555 38.6056 28.7157 36.4965 29.7904C34.3873 30.8651 32.5624 32.4236 31.1711 34.3387C29.7797 36.2538 28.8613 38.471 28.491 40.809C28.4437 41.1078 28.4055 41.4075 28.3763 41.7077L6.42982 48.8386C5.84926 45.0526 5.85505 41.1875 6.458 37.3806C7.37635 31.5824 9.65395 26.0838 13.1046 21.3344C16.5552 16.585 21.0809 12.7197 26.3116 10.0546C31.5423 7.38939 37.3295 6 43.2 6C49.0706 6 54.8578 7.38938 60.0885 10.0546C65.3192 12.7197 69.8448 16.585 73.2954 21.3344C76.7461 26.0838 79.0237 31.5824 79.942 37.3806C80.545 41.1875 80.5508 45.0526 79.9702 48.8386L62.1248 43.0403C61.5677 42.8593 60.9614 43.1069 60.6903 43.6261L59.0004 46.8623C58.6567 47.5204 58.9872 48.3296 59.6933 48.559L82.0031 55.8079C83.2637 56.2175 84.6246 55.529 84.9635 54.2476C85.2726 53.0794 85.532 51.9004 85.7416 50.7138C86.5723 46.0101 86.6197 41.1871 85.8682 36.442C84.8017 29.7086 82.1567 23.3231 78.1495 17.8077C74.1424 12.2923 68.8868 7.80356 62.8124 4.70852C56.738 1.61348 50.0174 -3.54347e-07 43.2 0C36.3826 5.118e-07 29.662 1.61348 23.5876 4.70852C17.5133 7.80356 12.2576 12.2923 8.25047 17.8077C4.2433 23.3231 1.59835 29.7086 0.531868 36.442C-0.219682 41.1871 -0.172313 46.0101 0.658459 50.7138Z" fill="#327003"/>
</svg>
