<svg width="42" height="36" viewBox="0 0 42 36" fill="none" xmlns="http://www.w3.org/2000/svg">
<g filter="url(#filter0_d_319_330)">
<g clip-path="url(#clip0_319_330)">
<rect x="4" width="34" height="28" rx="8" fill="#9CC5FF"/>
<rect x="4" width="34" height="28" rx="8" fill="#9CC5FF"/>
<path d="M29 7.41V9C29 9.26522 29.1054 9.51957 29.2929 9.70711C29.4804 9.89464 29.7348 10 30 10C30.2652 10 30.5196 9.89464 30.7071 9.70711C30.8946 9.51957 31 9.26522 31 9V5C30.9984 4.86932 30.9712 4.74022 30.92 4.62C30.8185 4.37565 30.6243 4.18147 30.38 4.08C30.2598 4.02876 30.1307 4.00158 30 4H26C25.7348 4 25.4804 4.10536 25.2929 4.29289C25.1054 4.48043 25 4.73478 25 5C25 5.26522 25.1054 5.51957 25.2929 5.70711C25.4804 5.89464 25.7348 6 26 6H27.59L21.79 11.79C21.6963 11.883 21.6219 11.9936 21.5711 12.1154C21.5203 12.2373 21.4942 12.368 21.4942 12.5C21.4942 12.632 21.5203 12.7627 21.5711 12.8846C21.6219 13.0064 21.6963 13.117 21.79 13.21C21.883 13.3037 21.9936 13.3781 22.1154 13.4289C22.2373 13.4797 22.368 13.5058 22.5 13.5058C22.632 13.5058 22.7627 13.4797 22.8846 13.4289C23.0064 13.3781 23.117 13.3037 23.21 13.21L29 7.41ZM17 23C17 22.7348 16.8946 22.4804 16.7071 22.2929C16.5196 22.1054 16.2652 22 16 22H14.41L20.21 16.21C20.3983 16.0217 20.5041 15.7663 20.5041 15.5C20.5041 15.2337 20.3983 14.9783 20.21 14.79C20.0217 14.6017 19.7663 14.4959 19.5 14.4959C19.2337 14.4959 18.9783 14.6017 18.79 14.79L13 20.59V19C13 18.7348 12.8946 18.4804 12.7071 18.2929C12.5196 18.1054 12.2652 18 12 18C11.7348 18 11.4804 18.1054 11.2929 18.2929C11.1054 18.4804 11 18.7348 11 19V23C11.0016 23.1307 11.0288 23.2598 11.08 23.38C11.1815 23.6243 11.3757 23.8185 11.62 23.92C11.7402 23.9712 11.8693 23.9984 12 24H16C16.2652 24 16.5196 23.8946 16.7071 23.7071C16.8946 23.5196 17 23.2652 17 23Z" fill="black"/>
</g>
</g>
<defs>
<filter id="filter0_d_319_330" x="0" y="0" width="42" height="36" filterUnits="userSpaceOnUse" color-interpolation-filters="sRGB">
<feFlood flood-opacity="0" result="BackgroundImageFix"/>
<feColorMatrix in="SourceAlpha" type="matrix" values="0 0 0 0 0 0 0 0 0 0 0 0 0 0 0 0 0 0 127 0" result="hardAlpha"/>
<feOffset dy="4"/>
<feGaussianBlur stdDeviation="2"/>
<feComposite in2="hardAlpha" operator="out"/>
<feColorMatrix type="matrix" values="0 0 0 0 0 0 0 0 0 0 0 0 0 0 0 0 0 0 0.25 0"/>
<feBlend mode="normal" in2="BackgroundImageFix" result="effect1_dropShadow_319_330"/>
<feBlend mode="normal" in="SourceGraphic" in2="effect1_dropShadow_319_330" result="shape"/>
</filter>
<clipPath id="clip0_319_330">
<rect x="4" width="34" height="28" rx="8" fill="white"/>
</clipPath>
</defs>
</svg>
