<svg width="124" height="88" viewBox="0 0 124 88" fill="none" xmlns="http://www.w3.org/2000/svg">
<path d="M20.3701 0.505859H20.3711L110.245 0.503906C114.276 0.50343 117.476 1.34929 119.671 3.18262C121.713 4.88848 122.959 7.51213 123.134 11.3184L123.154 12.0957L123.157 70.4736C123.159 72.9385 123.359 75.6076 122.988 77.9307C122.393 81.6666 120.617 83.8793 118.234 85.1807C115.819 86.4996 112.732 86.907 109.492 86.9062L103.488 86.9014H103.487L14.0312 86.9033C12.5546 86.9056 11.1378 86.9558 9.74121 86.7598C4.08095 85.9661 0.555767 80.9362 0.53125 75.3311L0.532227 16.4502C0.533148 11.5597 -0.00926145 7.18899 3.52539 3.66602C5.11793 2.07867 6.64587 1.29761 8.29395 0.904297C9.96613 0.505309 11.7754 0.500001 13.9678 0.5L20.3701 0.505859ZM44.8633 42.752C43.0009 44.5839 41.3123 46.668 39.584 48.5469L39.583 48.5488L13.2158 77.4092C12.8863 77.77 12.5371 78.1176 12.1768 78.4854C11.8211 78.8484 11.4593 79.2269 11.1279 79.6299L10.4775 80.4209L11.501 80.4473C14.2607 80.519 17.0553 80.4476 19.791 80.4473H113.517L112.805 79.6211C112.043 78.7374 111.198 77.8858 110.437 77.0527V77.0518L83.6533 47.9053C83.3319 47.5494 82.2441 46.3099 81.1924 45.1279C80.6673 44.5378 80.1523 43.9636 79.7529 43.5283C79.5536 43.3111 79.3804 43.1256 79.248 42.9893C79.1824 42.9216 79.1232 42.8626 79.0742 42.8164C79.0499 42.7935 79.0241 42.7699 78.999 42.749C78.9822 42.735 78.9361 42.6966 78.8779 42.666L78.6318 42.5361L78.3916 42.6787L78.2676 42.752L78.2656 42.7529C77.8048 43.0281 77.3631 43.3459 76.9375 43.6709L75.707 44.6328L71.8496 47.6094L71.8477 47.6113C66.9396 51.4324 61.3458 53.3347 55.5508 50.0928C54.5455 49.5307 53.6338 48.8148 52.6904 48.0811L51.7314 47.3467L45.5127 42.708L45.1689 42.4512L44.8633 42.752ZM115.74 12.8418C114.358 13.653 113.098 14.816 111.931 15.7666L84.2588 38L83.8564 38.3232L84.1924 38.7148C85.1093 39.7862 86.1541 40.8238 87.0684 41.834V41.835L93.2852 48.6719L93.2881 48.6748C95.7945 51.3783 98.2731 54.1738 100.823 56.8613V56.8623C105.774 62.1969 110.546 67.8937 115.634 73.1504L116.493 74.0381V23.8682C116.493 23.4118 116.523 20.8303 116.539 18.3174C116.547 17.0645 116.551 15.8304 116.545 14.8945C116.542 14.4272 116.537 14.0306 116.528 13.7422C116.524 13.599 116.519 13.4773 116.513 13.3848C116.509 13.3392 116.506 13.2932 116.5 13.2529C116.497 13.2331 116.493 13.2076 116.487 13.1807C116.484 13.1641 116.47 13.1042 116.436 13.0391L116.191 12.5762L115.74 12.8418ZM7.23242 13.2666C7.14708 20.0812 7.23245 26.917 7.23242 33.7207V73.998L8.08398 73.1592C10.1306 71.1409 12.0194 68.8566 13.915 66.7588L13.9141 66.7578L23.2422 56.5869L23.2432 56.5859C28.5722 50.7473 34.1145 44.2235 39.6064 38.7432L39.9697 38.3809L39.5977 38.0273C38.5987 37.078 37.4584 36.249 36.4346 35.4229L36.4316 35.4209L10.5615 14.7803L10.5586 14.7773C10.1787 14.4788 9.82083 14.1429 9.35645 13.7578C8.92505 13.4001 8.43923 13.035 7.93262 12.8145L7.24219 12.5137L7.23242 13.2666Z" fill="#16631F" stroke="#16631F"/>
</svg>
