<svg width="203" height="211" viewBox="0 0 203 211" fill="none" xmlns="http://www.w3.org/2000/svg">
<g filter="url(#filter0_d_9_212)">
<rect x="20" y="10" width="163" height="171" rx="81.5" fill="url(#paint0_linear_9_212)" shape-rendering="crispEdges"/>
<g clip-path="url(#clip0_9_212)">
<path d="M123.713 128.587H104.409V122.952C104.452 122.903 104.493 122.851 104.53 122.796C106.361 119.133 108.843 116.341 110.947 114.106C117.883 114.051 122.089 112.834 124.799 110.007C127.453 107.353 128.66 103.251 128.539 97.2182C128.539 96.4943 127.936 96.0117 127.333 96.0117C116.237 96.0117 109.39 98.7268 109.239 112.437C107.709 114.055 105.999 115.944 104.409 118.234V102.044C104.409 100.54 106.073 97.5957 108.548 94.8037C119.654 94.7503 124.919 92.8842 124.919 77.914C124.919 77.1901 124.437 76.7075 123.713 76.7075C112.364 76.7075 106.93 78.3657 106.824 93.1556C106.217 93.844 105.303 94.9343 104.432 96.1951C104.424 96.1509 104.418 96.1068 104.409 96.0625V82.7398C104.409 81.2863 104.504 80.0225 104.707 78.8658C108.588 78.1661 112.165 75.8626 114.181 72.7259C116.112 69.7096 116.474 65.8489 115.267 61.8675C115.026 61.2642 114.543 60.9023 113.94 61.0229C107.666 61.9881 103.202 64.5218 101.393 68.5032C100.019 71.4797 100.384 74.8905 102.383 78.1175C102.12 79.505 101.996 81.0142 101.996 82.74V91.0918C101.027 89.7356 100.044 88.6584 99.5789 88.1715C99.513 82.746 98.537 79.5225 96.3252 77.3108C94.1535 75.139 90.896 74.2945 86.3113 74.2945C85.5873 74.2945 85.1047 74.8978 85.1047 75.5011C85.1047 84.0541 87.3272 89.8 97.8755 89.9749C99.2615 91.4619 101.996 94.8964 101.996 97.2181V112.728C100.86 111.254 99.7648 110.234 98.8588 109.404C98.693 109.238 98.5277 109.073 98.3734 108.918C98.26 92.105 90.3145 88.7726 76.6591 88.7726C75.9352 88.7726 75.4526 89.2552 75.4526 89.9792C75.4526 103.419 82.6048 110.292 96.5617 110.485C96.8046 110.728 97.0473 110.971 97.2901 111.213C98.5858 112.391 100.341 114.03 101.996 116.913V128.587H82.6919C81.9679 128.587 81.4853 129.07 81.4853 129.794C81.4853 130.518 81.9679 131 82.6919 131H123.713C124.437 131 124.919 130.518 124.919 129.794C124.919 129.07 124.437 128.587 123.713 128.587ZM126.126 98.4245C126.005 103.13 125.04 106.267 123.11 108.318C121.085 110.455 117.906 111.438 112.792 111.659C114.135 109.681 115.894 107.76 118.283 106.749C118.887 106.508 119.128 105.784 118.887 105.181C118.645 104.578 117.922 104.336 117.318 104.578C115.012 105.586 113.266 107.112 111.874 108.794C112.96 100.417 117.621 98.5336 126.126 98.4245ZM103.564 69.4686C104.891 66.4523 108.27 64.4012 113.216 63.5567C113.94 66.573 113.578 69.2273 112.13 71.5196C110.467 74.1186 107.729 75.6418 105.383 76.3225C105.842 75.0664 106.474 73.8755 107.304 72.6055C107.666 72.0022 107.546 71.2784 106.942 70.9163C106.339 70.5544 105.615 70.675 105.253 71.2783C104.498 72.4315 103.887 73.5457 103.407 74.6939C102.798 72.8843 102.849 71.0772 103.564 69.4686ZM87.5178 76.7076C90.7753 76.8283 93.0678 77.5521 94.6362 78.9999C95.9242 80.387 96.7236 82.4258 97.0353 85.4487L94.5155 82.74C94.0329 82.2574 93.309 82.1367 92.8264 82.6193C92.3438 83.1019 92.2231 83.8258 92.7057 84.3084L95.5441 87.4308C89.1892 86.6473 87.6296 83.0732 87.5178 76.7076ZM77.866 91.1856C88.734 91.4097 94.7107 93.9247 95.7984 105.297C93.2694 101.993 90.6701 99.7419 88.0006 98.5452C87.3973 98.3038 86.6735 98.5452 86.4321 99.1485C86.1907 99.7517 86.4321 100.476 87.0354 100.717C89.7495 101.865 92.3732 104.279 94.9846 108.034C83.7029 107.408 78.2179 101.977 77.866 91.1856ZM122.495 79.127C122.287 90.121 119.117 92.0824 110.786 92.3537C112.234 90.7648 114.211 88.7494 115.991 87.3248C116.595 86.9629 116.595 86.1183 116.233 85.6357C115.871 85.0324 115.026 85.0324 114.544 85.3943C112.725 86.7997 110.793 88.7149 109.33 90.286C109.942 80.5539 113.614 79.2228 122.495 79.127Z" fill="white"/>
</g>
</g>
<defs>
<filter id="filter0_d_9_212" x="0" y="0" width="203" height="211" filterUnits="userSpaceOnUse" color-interpolation-filters="sRGB">
<feFlood flood-opacity="0" result="BackgroundImageFix"/>
<feColorMatrix in="SourceAlpha" type="matrix" values="0 0 0 0 0 0 0 0 0 0 0 0 0 0 0 0 0 0 127 0" result="hardAlpha"/>
<feOffset dy="10"/>
<feGaussianBlur stdDeviation="10"/>
<feComposite in2="hardAlpha" operator="out"/>
<feColorMatrix type="matrix" values="0 0 0 0 0 0 0 0 0 0 0 0 0 0 0 0 0 0 0.25 0"/>
<feBlend mode="normal" in2="BackgroundImageFix" result="effect1_dropShadow_9_212"/>
<feBlend mode="normal" in="SourceGraphic" in2="effect1_dropShadow_9_212" result="shape"/>
</filter>
<linearGradient id="paint0_linear_9_212" x1="38.745" y1="45.91" x2="179.2" y2="174.283" gradientUnits="userSpaceOnUse">
<stop stop-color="#338D60"/>
<stop offset="1" stop-color="#B0FBD5"/>
</linearGradient>
<clipPath id="clip0_9_212">
<rect width="70" height="70" fill="white" transform="translate(67 61)"/>
</clipPath>
</defs>
</svg>
