<svg width="100" height="100" viewBox="0 0 100 100" fill="none" xmlns="http://www.w3.org/2000/svg">
<rect width="100" height="100" rx="32" fill="url(#paint0_linear_19_141)"/>
<path fill-rule="evenodd" clip-rule="evenodd" d="M36.7406 50.4094C32.0109 52.5344 28.9062 55.7516 28.9062 59.4422C28.9062 63.4047 32.4875 66.8203 37.8109 68.9266C38.2109 69.0859 38.4078 69.5391 38.25 69.9406C38.0906 70.3422 37.6359 70.5375 37.2359 70.3797C31.2016 67.9922 27.3438 63.9344 27.3438 59.4422C27.3438 54.8719 31.3422 50.75 37.5594 48.3797C37.8391 48.2734 38.1547 48.3359 38.3734 48.5406C38.5906 48.7453 38.6734 49.0562 38.5844 49.3422C38.3609 50.0578 38.2328 50.7391 38.2328 51.3797C38.2328 52.2484 38.3297 53.0937 38.5125 53.9078C38.5812 54.2109 38.4641 54.525 38.2141 54.7078C36.425 56.0266 35.3156 57.6516 35.3156 59.4422C35.3156 61.1609 36.3375 62.7266 37.9984 64.0141C40.7047 66.1125 45.0781 67.45 50 67.45C54.6313 67.45 58.7766 66.2641 61.5078 64.375C61.8625 64.1297 62.35 64.2187 62.5953 64.5734C62.8406 64.9281 62.7516 65.4156 62.3969 65.6609C59.4531 67.6969 54.9937 69.0125 50 69.0125C44.6797 69.0125 39.9672 67.5172 37.0422 65.25C34.95 63.6281 33.7531 61.6062 33.7531 59.4422C33.7531 57.3344 34.8922 55.3578 36.8875 53.7578C36.7453 52.9859 36.6703 52.1922 36.6703 51.3797C36.6703 51.0656 36.6953 50.7406 36.7406 50.4094Z" fill="white"/>
<path fill-rule="evenodd" clip-rule="evenodd" d="M62.5844 53.3563C63.9141 54.3125 64.925 55.4203 65.5422 56.6188C65.7391 57.0031 65.5875 57.4734 65.2031 57.6703C64.8203 57.8688 64.3484 57.7172 64.1516 57.3328C63.5812 56.2235 62.5906 55.2219 61.2984 54.3688C61.0344 54.1938 60.9016 53.8781 60.9625 53.5688C61.0984 52.8609 61.1703 52.1281 61.1703 51.3797C61.1703 50.6859 61.0641 49.9156 60.875 49.0906C60.8109 48.8125 60.9047 48.5219 61.1187 48.3313C61.3312 48.1422 61.6312 48.0844 61.9 48.1797C68.4219 50.5156 72.6562 54.7422 72.6562 59.4422C72.6562 62.4094 71 65.1766 68.1313 67.4C64.0391 70.5719 57.4438 72.6563 50 72.6563C49.5688 72.6563 49.2188 72.3063 49.2188 71.875C49.2188 71.4438 49.5688 71.0938 50 71.0938C57.0453 71.0938 63.3016 69.1672 67.1734 66.1656C69.6125 64.275 71.0938 61.9656 71.0938 59.4422C71.0938 55.5938 67.725 52.2609 62.6516 50.1453C62.7047 50.5766 62.7328 50.9891 62.7328 51.3797C62.7328 52.0516 62.6828 52.7125 62.5844 53.3563Z" fill="white"/>
<path fill-rule="evenodd" clip-rule="evenodd" d="M50.2234 27.5438C49.9734 27.3172 49.6047 27.2797 49.3109 27.4484C49.0187 27.6172 48.8672 27.9547 48.9375 28.2859C49.0703 28.9188 48.8625 29.6875 48.4828 30.5688C47.8156 32.1188 46.5906 33.9438 45.1875 35.8969C43.0109 38.9297 40.4125 42.2578 38.6797 45.3438C37.4578 47.5219 36.6703 49.5953 36.6703 51.3797C36.6703 58.5719 42.5094 64.4109 49.7015 64.4109C56.8937 64.4109 62.7328 58.5719 62.7328 51.3797C62.7328 48.4953 61.1515 44.4344 59.0515 40.4625C55.9484 34.5969 51.7515 28.9156 50.2234 27.5438ZM50.3453 29.975C50.2422 30.3609 50.1 30.7656 49.9172 31.1875C49.214 32.8203 47.9344 34.75 46.4562 36.8078C44.314 39.7953 41.7484 43.0688 40.0422 46.1094C38.9719 48.0172 38.2328 49.8172 38.2328 51.3797C38.2328 57.7094 43.3719 62.8484 49.7015 62.8484C56.0312 62.8484 61.1703 57.7094 61.1703 51.3797C61.1703 48.6828 59.6328 44.9063 57.6703 41.1922C55.2765 36.6672 52.2265 32.2438 50.3453 29.975Z" fill="white"/>
<path fill-rule="evenodd" clip-rule="evenodd" d="M51.6859 60.1469C52.2156 60.0625 52.7328 59.9062 53.2343 59.7156C58.5156 57.7172 59.2844 51.6094 58.5859 46.7641C58.525 46.3375 58.1281 46.0406 57.7015 46.1016C57.275 46.1625 56.9781 46.5594 57.039 46.9859C57.3484 49.1328 57.3734 51.5719 56.725 53.6969C56.114 55.7 54.889 57.4187 52.6812 58.2547C52.2797 58.4078 51.864 58.5359 51.439 58.6031C51.014 58.6719 50.7234 59.0719 50.7906 59.4984C50.8594 59.9234 51.2594 60.2141 51.6859 60.1469Z" fill="white"/>
<defs>
<linearGradient id="paint0_linear_19_141" x1="11" y1="89.5" x2="84" y2="9" gradientUnits="userSpaceOnUse">
<stop stop-color="#0E91B4"/>
<stop offset="0.519265" stop-color="#64E0EF"/>
<stop offset="1" stop-color="#0E90B3"/>
</linearGradient>
</defs>
</svg>
