<svg width="42" height="36" viewBox="0 0 42 36" fill="none" xmlns="http://www.w3.org/2000/svg">
<g filter="url(#filter0_d_319_336)">
<rect x="4" width="34" height="28" rx="8" fill="#FDDEDE"/>
<path d="M24.0066 5.25608C25.8483 4.85737 28.1331 4.8773 31.2423 5.65268C31.7781 5.78629 32.1038 6.32791 31.9699 6.86241C31.836 7.39691 31.2931 7.7219 30.7573 7.58829C27.8666 6.86742 25.9015 6.88747 24.4308 7.20587C22.9555 7.52524 21.895 8.15867 20.7715 8.84363L20.6874 8.89494C19.6044 9.55565 18.4051 10.2873 16.8207 10.5507C15.1773 10.8239 13.236 10.5824 10.6288 9.54187C10.1161 9.33724 9.86667 8.75667 10.0718 8.24513C10.2769 7.73359 10.8589 7.48479 11.3716 7.68943C13.7643 8.6443 15.3229 8.77699 16.492 8.58265C17.6789 8.38535 18.5837 7.83916 19.7286 7.14119C20.855 6.45445 22.1694 5.6538 24.0066 5.25608Z" fill="#0F0F0F"/>
<path d="M31.2423 9.64303C28.1331 8.86766 25.8483 8.84773 24.0066 9.24643C22.1694 9.64416 20.855 10.4448 19.7286 11.1315C18.5837 11.8295 17.6789 12.3757 16.492 12.573C15.3229 12.7673 13.7643 12.6346 11.3716 11.6798C10.8589 11.4752 10.2769 11.7239 10.0718 12.2355C9.86667 12.747 10.1161 13.3276 10.6288 13.5322C13.236 14.5727 15.1773 14.8142 16.8207 14.541C18.4051 14.2776 19.6044 13.546 20.6874 12.8853L20.7715 12.834C21.895 12.149 22.9555 11.5156 24.4308 11.1962C25.9015 10.8778 27.8666 10.8578 30.7573 11.5786C31.2931 11.7123 31.836 11.3873 31.9699 10.8528C32.1038 10.3183 31.7781 9.77664 31.2423 9.64303Z" fill="#0F0F0F"/>
<path fill-rule="evenodd" clip-rule="evenodd" d="M27.9999 12.0266C27.6527 12.0266 27.3634 12.2059 27.1615 12.4772C27.0906 12.573 26.9267 12.7972 26.709 13.111C26.4194 13.5283 26.0318 14.1082 25.6425 14.7555C25.2551 15.3996 24.8554 16.128 24.5496 16.8397C24.2568 17.5213 23.999 18.2614 24 19.0117C24.0007 19.2223 24.0259 19.4339 24.0605 19.6412C24.1183 19.9872 24.2357 20.4636 24.4805 20.9521C24.7273 21.4446 25.1132 21.9674 25.7108 22.3648C26.3147 22.7664 27.0749 23 27.9999 23C28.9249 23 29.6851 22.7664 30.2889 22.3648C30.8865 21.9674 31.2725 21.4446 31.5193 20.9522C31.7641 20.4636 31.8816 19.9872 31.9394 19.6413C31.9741 19.4337 31.9996 19.2215 31.9999 19.0107C32.0002 18.2604 31.7431 17.5214 31.4502 16.8397C31.1445 16.128 30.7448 15.3996 30.3574 14.7555C29.9681 14.1082 29.5804 13.5283 29.2908 13.111C29.0731 12.7972 28.9091 12.573 28.8383 12.4772C28.6364 12.2059 28.347 12.0266 27.9999 12.0266ZM29.612 17.6257C29.3553 17.0281 29.005 16.3848 28.6424 15.782C28.4219 15.4154 28.2008 15.0702 27.9999 14.7674C27.799 15.0702 27.5779 15.4154 27.3574 15.782C26.9949 16.3848 26.6446 17.0281 26.3879 17.6257L26.3733 17.6595C26.1966 18.0704 25.9878 18.5562 26.0002 19.0101C26.0122 19.3691 26.1089 19.7397 26.2694 20.0599C26.3975 20.3157 26.5741 20.5411 26.8202 20.7048C27.0601 20.8643 27.4249 21.0048 27.9999 21.0048C28.5749 21.0048 28.9397 20.8643 29.1796 20.7048C29.4257 20.5411 29.6023 20.3156 29.7305 20.0599C29.891 19.7397 29.9877 19.3691 29.9997 19.01C30.0122 18.5563 29.8033 18.0705 29.6266 17.6597L29.612 17.6257Z" fill="#0F0F0F"/>
<path d="M23.1296 13.5308C23.8899 13.2847 24.4728 14.076 24.1153 14.7892C23.952 15.1151 23.7683 15.3924 23.4031 15.5214C22.426 15.8666 21.6166 16.3527 20.7715 16.8679L20.6874 16.9192C19.6044 17.5799 18.4051 18.3115 16.8207 18.5749C15.1773 18.8481 13.236 18.6066 10.6288 17.5661C10.1161 17.3615 9.86668 16.7809 10.0718 16.2694C10.2769 15.7578 10.8589 15.509 11.3717 15.7137C13.7643 16.6685 15.323 16.8012 16.492 16.6069C17.6789 16.4096 18.5837 15.8634 19.7286 15.1654C20.8166 14.5021 21.9363 13.9171 23.1296 13.5308Z" fill="#0F0F0F"/>
</g>
<defs>
<filter id="filter0_d_319_336" x="0" y="0" width="42" height="36" filterUnits="userSpaceOnUse" color-interpolation-filters="sRGB">
<feFlood flood-opacity="0" result="BackgroundImageFix"/>
<feColorMatrix in="SourceAlpha" type="matrix" values="0 0 0 0 0 0 0 0 0 0 0 0 0 0 0 0 0 0 127 0" result="hardAlpha"/>
<feOffset dy="4"/>
<feGaussianBlur stdDeviation="2"/>
<feComposite in2="hardAlpha" operator="out"/>
<feColorMatrix type="matrix" values="0 0 0 0 0 0 0 0 0 0 0 0 0 0 0 0 0 0 0.25 0"/>
<feBlend mode="normal" in2="BackgroundImageFix" result="effect1_dropShadow_319_336"/>
<feBlend mode="normal" in="SourceGraphic" in2="effect1_dropShadow_319_336" result="shape"/>
</filter>
</defs>
</svg>
