<svg width="42" height="36" viewBox="0 0 42 36" fill="none" xmlns="http://www.w3.org/2000/svg">
<g filter="url(#filter0_d_376_345)">
<rect x="4" width="34" height="28" rx="8" fill="#CDF9D9"/>
<path d="M32.9867 2.3503C32.2124 2.13712 31.5273 2.05848 30.8683 2.02179C30.2093 1.9781 29.5942 2.00606 28.9942 2.05324C27.8038 2.16682 26.7151 2.43068 25.7087 2.82035C23.696 3.59444 21.9908 4.83334 20.5217 6.42521C19.054 8.01883 17.8156 9.95844 16.8875 12.3628C16.4207 13.5633 16.0363 14.8843 15.7534 16.3574C15.6189 17.1053 15.4953 17.8671 15.4198 18.7041C15.358 19.3437 15.3141 20.0094 15.3127 20.7381C15.2029 20.8132 15.0931 20.8989 14.986 20.9915C14.986 20.9915 11.2639 23.6615 9.54633 23.7226C7.82877 23.7768 10.7545 25.0419 10.2616 25.9051C9.87859 26.5779 13.3879 23.5234 15.5022 21.4528C15.5049 21.4528 15.5077 21.4528 15.5104 21.4563C22.1693 15.5029 29.4953 6.40949 29.4953 6.40949C29.4953 6.40949 21.3057 19.9797 17.0317 21.7044C17.1662 21.7149 17.3008 21.7236 17.4326 21.7324C18.093 21.776 18.7067 21.7463 19.3066 21.6957C20.4943 21.5821 21.583 21.313 22.588 20.9268C24.6035 20.1562 26.3101 18.9191 27.786 17.3359C29.2619 15.751 30.5003 13.8132 31.4298 11.4123C31.898 10.2153 32.2783 8.89078 32.5625 7.41424C32.6984 6.6681 32.8206 5.90274 32.8934 5.064C32.9758 4.23049 33.0252 3.35854 32.9867 2.3503Z" fill="#166A2C"/>
</g>
<defs>
<filter id="filter0_d_376_345" x="0" y="0" width="42" height="36" filterUnits="userSpaceOnUse" color-interpolation-filters="sRGB">
<feFlood flood-opacity="0" result="BackgroundImageFix"/>
<feColorMatrix in="SourceAlpha" type="matrix" values="0 0 0 0 0 0 0 0 0 0 0 0 0 0 0 0 0 0 127 0" result="hardAlpha"/>
<feOffset dy="4"/>
<feGaussianBlur stdDeviation="2"/>
<feComposite in2="hardAlpha" operator="out"/>
<feColorMatrix type="matrix" values="0 0 0 0 0 0 0 0 0 0 0 0 0 0 0 0 0 0 0.25 0"/>
<feBlend mode="normal" in2="BackgroundImageFix" result="effect1_dropShadow_376_345"/>
<feBlend mode="normal" in="SourceGraphic" in2="effect1_dropShadow_376_345" result="shape"/>
</filter>
</defs>
</svg>
