<svg width="16" height="20" viewBox="0 0 16 20" fill="none" xmlns="http://www.w3.org/2000/svg">
<path opacity="0.9" d="M3.95553 9.88865V7.91135H11.8667V9.88865H3.95553ZM3.95553 5.93333V3.95531H11.8667V5.93333H3.95553ZM1.9778 11.8667H9.39447C9.8724 11.8667 10.3174 11.9698 10.7295 12.1759C11.1415 12.3814 11.4876 12.6743 11.7678 13.0533L13.8445 15.773V1.97802H1.9778V11.8667ZM1.9778 17.8H12.905L10.2103 14.2645C10.1114 14.1332 9.99188 14.0301 9.85178 13.956C9.71168 13.8818 9.55927 13.8447 9.39447 13.8447H1.9778V17.8ZM13.8445 19.778H1.9778C1.43386 19.778 0.968319 19.5844 0.580946 19.1966C0.193648 18.8094 0 18.3436 0 17.8V1.97802C0 1.43364 0.193648 0.968632 0.580946 0.58074C0.968319 0.19359 1.43386 0 1.9778 0H13.8445C14.3883 0 14.854 0.19359 15.2413 0.58074C15.6286 0.968632 15.8222 1.43364 15.8222 1.97802V17.8C15.8222 18.3436 15.6286 18.8094 15.2413 19.1966C14.854 19.5844 14.3883 19.778 13.8445 19.778Z" fill="#2C7F02"/>
</svg>
