<svg width="20" height="20" viewBox="0 0 20 20" fill="none" xmlns="http://www.w3.org/2000/svg">
<path opacity="0.9" d="M7.21886 19.7773L6.82333 16.6134C6.60906 16.5303 6.40718 16.4316 6.21761 16.3167C6.02812 16.201 5.8427 16.0771 5.66136 15.9458L2.71947 17.1815L0 12.4845L2.54636 10.5562C2.5299 10.4405 2.52166 10.3292 2.52166 10.2224V9.55489C2.52166 9.44735 2.5299 9.33609 2.54636 9.22113L0 7.29281L2.71947 2.59583L5.66136 3.83146C5.8427 3.69944 6.0322 3.57633 6.23 3.46063C6.4278 3.34567 6.62553 3.24627 6.82333 3.16394L7.21886 0H12.6578L13.0533 3.16394C13.2676 3.24627 13.4695 3.34567 13.6591 3.46063C13.8485 3.57633 14.034 3.69944 14.2153 3.83146L17.1572 2.59583L19.8767 7.29281L17.3303 9.22113C17.3468 9.33609 17.355 9.44735 17.355 9.55489V10.2224C17.355 10.3292 17.3385 10.4405 17.3055 10.5562L19.852 12.4845L17.1325 17.1815L14.2153 15.9458C14.034 16.0771 13.8445 16.201 13.6467 16.3167C13.4489 16.4316 13.2511 16.5303 13.0533 16.6134L12.6578 19.7773H7.21886ZM8.94947 17.8H10.9025L11.2486 15.179C11.7596 15.0469 12.2333 14.8533 12.6701 14.5982C13.1069 14.3423 13.5066 14.0338 13.8692 13.6711L16.3167 14.685L17.2808 13.0037L15.1547 11.3965C15.2371 11.1658 15.2948 10.9225 15.3278 10.6674C15.3607 10.4115 15.3772 10.1519 15.3772 9.88865C15.3772 9.62461 15.3607 9.36504 15.3278 9.10991C15.2948 8.85403 15.2371 8.61148 15.1547 8.38082L17.2808 6.77364L16.3167 5.0923L13.8692 6.13061C13.5066 5.75162 13.1069 5.43422 12.6701 5.17908C12.2333 4.92321 11.7596 4.72962 11.2486 4.59834L10.9272 1.97729H8.97417L8.62803 4.59834C8.11709 4.72962 7.64332 4.92321 7.20655 5.17908C6.76978 5.43422 6.3701 5.74349 6.0075 6.10617L3.56 5.0923L2.59583 6.77364L4.72197 8.35561C4.63957 8.60333 4.58187 8.8503 4.54886 9.09728C4.51593 9.34499 4.49947 9.6083 4.49947 9.88865C4.49947 10.1519 4.51593 10.4078 4.54886 10.6548C4.58187 10.9025 4.63957 11.1495 4.72197 11.3965L2.59583 13.0037L3.56 14.685L6.0075 13.6467C6.3701 14.0257 6.76978 14.3423 7.20655 14.5982C7.64332 14.8533 8.11709 15.0469 8.62803 15.179L8.94947 17.8ZM9.9878 13.35C10.9437 13.35 11.7596 13.0118 12.4353 12.3361C13.111 11.6605 13.4489 10.8447 13.4489 9.88865C13.4489 8.93264 13.111 8.11681 12.4353 7.44116C11.7596 6.7655 10.9437 6.42729 9.9878 6.42729C9.0154 6.42729 8.19542 6.7655 7.52792 7.44116C6.86042 8.11681 6.52667 8.93264 6.52667 9.88865C6.52667 10.8447 6.86042 11.6605 7.52792 12.3361C8.19542 13.0118 9.0154 13.35 9.9878 13.35Z" fill="#2C7F02"/>
</svg>
