<svg width="48" height="36" viewBox="0 0 48 36" fill="none" xmlns="http://www.w3.org/2000/svg">
<rect width="48" height="36" rx="8" fill="#FDDEDE"/>
<path fill-rule="evenodd" clip-rule="evenodd" d="M31.2264 14.7308C31.4169 15.1949 31.8683 15.4985 32.37 15.5C33.0509 15.5055 33.6 16.0591 33.6 16.74V18.88C33.6 19.5648 33.0448 20.12 32.36 20.12C31.8583 20.1215 31.4069 20.4251 31.2164 20.8892C31.026 21.3534 31.134 21.8865 31.49 22.24C31.9676 22.7295 31.9676 23.5105 31.49 24L29.99 25.5C29.5005 25.9776 28.7194 25.9776 28.23 25.5C28.0042 25.2608 27.6889 25.1267 27.36 25.13C27.0294 25.1273 26.7114 25.2568 26.4767 25.4896C26.242 25.7225 26.11 26.0394 26.11 26.37C26.11 27.0548 25.5548 27.61 24.87 27.61H22.73C22.0452 27.61 21.49 27.0548 21.49 26.37C21.49 26.0394 21.358 25.7225 21.1233 25.4896C20.8886 25.2568 20.5706 25.1273 20.24 25.13C19.9111 25.1267 19.5958 25.2608 19.37 25.5C18.8805 25.9776 18.0995 25.9776 17.61 25.5L16.11 24C15.6324 23.5105 15.6324 22.7295 16.11 22.24C16.466 21.8865 16.574 21.3534 16.3836 20.8892C16.1931 20.4251 15.7417 20.1215 15.24 20.12C14.9111 20.12 14.5957 19.9894 14.3632 19.7568C14.1306 19.5243 14 19.2089 14 18.88V16.74C14 16.0552 14.5552 15.5 15.24 15.5C15.7417 15.4985 16.1931 15.1949 16.3836 14.7308C16.574 14.2666 16.466 13.7335 16.11 13.38C15.6324 12.8905 15.6324 12.1095 16.11 11.62L17.61 10.12C18.0995 9.64237 18.8805 9.64237 19.37 10.12C19.5958 10.3592 19.9111 10.4933 20.24 10.49C20.5723 10.4927 20.8918 10.3619 21.1269 10.1269C21.3619 9.89185 21.4927 9.57234 21.49 9.24C21.49 8.55517 22.0452 8 22.73 8H24.88C25.5648 8 26.12 8.55517 26.12 9.24C26.1173 9.57234 26.2481 9.89185 26.4831 10.1269C26.7182 10.3619 27.0377 10.4927 27.37 10.49C27.6989 10.4933 28.0142 10.3592 28.24 10.12C28.7294 9.64237 29.5105 9.64237 30 10.12L31.5 11.62C31.9776 12.1095 31.9776 12.8905 31.5 13.38C31.144 13.7335 31.036 14.2666 31.2264 14.7308ZM29.8 20.31C30.1904 19.3582 31.0843 18.7081 32.11 18.63L32.08 16.99C31.0654 16.901 30.1855 16.2527 29.8 15.31C29.4224 14.3651 29.5953 13.289 30.25 12.51L29.1 11.36C28.6123 11.7684 27.9961 11.9915 27.36 11.99C25.9429 11.9865 24.7586 10.9104 24.62 9.5H22.98C22.8458 10.9126 21.659 11.9912 20.24 11.99C19.6039 11.9915 18.9877 11.7684 18.5 11.36L17.38 12.51C18.0245 13.295 18.1859 14.3705 17.8 15.31C17.4145 16.2527 16.5346 16.901 15.52 16.99V18.63C16.5346 18.719 17.4145 19.3673 17.8 20.31C18.1776 21.2549 18.0047 22.331 17.35 23.11L18.5 24.26C18.9877 23.8516 19.6039 23.6285 20.24 23.63C21.6571 23.6335 22.8414 24.7096 22.98 26.12H24.62C24.745 24.7029 25.9374 23.6193 27.36 23.63C27.9961 23.6285 28.6123 23.8516 29.1 24.26L30.22 23.11C29.5755 22.325 29.4141 21.2495 29.8 20.31Z" fill="black"/>
<path fill-rule="evenodd" clip-rule="evenodd" d="M20.34 17.81C20.34 15.8991 21.8891 14.35 23.8 14.35C24.7176 14.35 25.5977 14.7145 26.2466 15.3634C26.8955 16.0123 27.26 16.8924 27.26 17.81C27.26 19.7209 25.7109 21.27 23.8 21.27C21.8891 21.27 20.34 19.7209 20.34 17.81ZM21.8 17.81C21.8 18.9146 22.6954 19.81 23.8 19.81C24.9046 19.81 25.8 18.9146 25.8 17.81C25.8 16.7054 24.9046 15.81 23.8 15.81C22.6954 15.81 21.8 16.7054 21.8 17.81Z" fill="black"/>
</svg>
