<svg width="203" height="211" viewBox="0 0 203 211" fill="none" xmlns="http://www.w3.org/2000/svg">
<g filter="url(#filter0_d_11_272)">
<rect x="20" y="10" width="163" height="171" rx="81.5" fill="url(#paint0_linear_11_272)"/>
<path d="M114.893 72.8652C110.9 72.8652 107.346 75.0049 105.035 78.3408C103.572 76.1055 101.255 74.6562 98.6367 74.6562C94.6719 74.6562 91.3838 77.9717 90.748 82.3125H87.6787C82.9961 82.3125 79.209 86.667 79.209 92.04C79.209 97.4131 83.0029 101.768 87.6787 101.768H114.893C121.845 101.768 127.478 95.3008 127.478 87.3232C127.478 79.332 121.845 72.8652 114.893 72.8652Z" fill="white"/>
<path d="M114.893 71.2588C111.16 71.2588 107.647 72.9404 105.035 75.9209C103.306 74.0752 101.05 73.0498 98.6368 73.0498C94.4258 73.0498 90.8028 76.2012 89.6202 80.7061H87.6787C82.2237 80.7061 77.7871 85.792 77.7871 92.04C77.7871 98.2881 82.2237 103.367 87.6787 103.367H114.893C122.617 103.367 128.899 96.1689 128.899 87.3164C128.899 78.457 122.617 71.2588 114.893 71.2588ZM114.893 100.154H87.6787C83.7891 100.154 80.6241 96.5107 80.6241 92.0332C80.6241 87.5557 83.7891 83.9121 87.6787 83.9121H90.7481C91.4453 83.9121 92.0332 83.3447 92.1495 82.5723C92.6827 78.915 95.417 76.2559 98.6368 76.2559C100.722 76.2559 102.636 77.3633 103.894 79.291C104.16 79.6943 104.57 79.9336 105.015 79.9404C105.432 79.9404 105.876 79.7217 106.149 79.3252C108.289 76.2354 111.468 74.4648 114.886 74.4648C121.045 74.4648 126.056 80.2275 126.056 87.3096C126.063 94.3916 121.052 100.154 114.893 100.154ZM86.6123 107.059L78.1973 116.69C77.6436 117.319 77.6504 118.338 78.211 118.96C78.4844 119.268 78.8467 119.425 79.209 119.425C79.5782 119.425 79.9405 119.268 80.2207 118.946L88.6358 109.314C89.1895 108.686 89.1827 107.667 88.6221 107.045C88.0616 106.416 87.1592 106.423 86.6123 107.059ZM99.6895 107.045C99.1289 106.423 98.2334 106.43 97.6797 107.059L93.4756 111.871C92.9219 112.5 92.9287 113.519 93.4893 114.141C93.7627 114.448 94.125 114.605 94.4873 114.605C94.8565 114.605 95.2188 114.448 95.4991 114.127L99.7032 109.314C100.257 108.679 100.25 107.667 99.6895 107.045ZM119.999 107.059L115.795 111.871C115.241 112.5 115.248 113.519 115.809 114.141C116.082 114.448 116.444 114.605 116.807 114.605C117.176 114.605 117.538 114.448 117.818 114.127L122.023 109.314C122.576 108.686 122.569 107.667 122.009 107.045C121.448 106.416 120.553 106.423 119.999 107.059ZM108.939 107.059L100.523 116.69C99.9698 117.319 99.9766 118.338 100.537 118.96C100.811 119.268 101.173 119.425 101.535 119.425C101.904 119.425 102.267 119.268 102.547 118.946L110.955 109.314C111.509 108.686 111.502 107.667 110.941 107.045C110.388 106.416 109.485 106.423 108.939 107.059Z" fill="white"/>
</g>
<defs>
<filter id="filter0_d_11_272" x="0" y="0" width="203" height="211" filterUnits="userSpaceOnUse" color-interpolation-filters="sRGB">
<feFlood flood-opacity="0" result="BackgroundImageFix"/>
<feColorMatrix in="SourceAlpha" type="matrix" values="0 0 0 0 0 0 0 0 0 0 0 0 0 0 0 0 0 0 127 0" result="hardAlpha"/>
<feOffset dy="10"/>
<feGaussianBlur stdDeviation="10"/>
<feComposite in2="hardAlpha" operator="out"/>
<feColorMatrix type="matrix" values="0 0 0 0 0 0 0 0 0 0 0 0 0 0 0 0 0 0 0.25 0"/>
<feBlend mode="normal" in2="BackgroundImageFix" result="effect1_dropShadow_11_272"/>
<feBlend mode="normal" in="SourceGraphic" in2="effect1_dropShadow_11_272" result="shape"/>
</filter>
<linearGradient id="paint0_linear_11_272" x1="38.745" y1="45.91" x2="159.6" y2="169.722" gradientUnits="userSpaceOnUse">
<stop stop-color="#2373C8"/>
<stop offset="1" stop-color="#9DCAFA"/>
</linearGradient>
</defs>
</svg>
