<svg width="25" height="25" viewBox="0 0 25 25" fill="none" xmlns="http://www.w3.org/2000/svg">
<g clip-path="url(#clip0_244_128)">
<path d="M9.36683 13.4736V12.4428C8.79182 12.0508 8.24784 11.5852 7.74634 11.0331C6.29411 12.4363 4.90395 13.325 4.74712 13.4246L4.61481 13.5063L3.81436 12.2272L3.94505 12.1439C3.96138 12.1325 5.37605 11.2356 6.80541 9.83568C5.49366 7.92278 4.98889 5.99518 4.96929 5.91187L4.93172 5.76485L6.39375 5.38913L6.42969 5.53779C6.43296 5.55412 6.84952 7.0962 7.86232 8.68402C8.8637 7.46702 9.44688 6.29413 9.59553 5.18821H3.45498V3.54648H6.83971V2.63332H8.41773V3.54484H11.8025V5.18821H11.1213C10.9628 6.72538 10.182 8.31811 8.79509 9.92716C8.98131 10.1363 9.17244 10.3274 9.36683 10.5103V10.4042V9.73767C9.36683 9.18879 9.81116 8.74447 10.36 8.74447H14.7788V0.929514C14.7788 0.792295 14.6694 0.681213 14.5305 0.681213H0.248301C0.111082 0.681213 0 0.792295 0 0.929514V15.2101C0 15.3489 0.111082 15.4584 0.248301 15.4584H9.36683V13.4736Z" fill="#049A4F"/>
<path d="M17.5248 13.9098H17.497C17.3598 14.4538 17.2258 15.1431 17.0755 15.6708L16.5332 17.6098H18.5523L17.9854 15.6708C17.8221 15.1284 17.6587 14.4521 17.5248 13.9098Z" fill="#049A4F"/>
<path d="M24.7518 9.54163H10.4712C10.334 9.54163 10.2229 9.65271 10.2229 9.78993V24.0721C10.2229 24.2094 10.334 24.3188 10.4712 24.3188H24.7518C24.8906 24.3188 25.0001 24.2094 25.0001 24.0721V9.78993C25.0001 9.65434 24.8906 9.54163 24.7518 9.54163ZM19.5571 21.4976L18.853 19.1519H16.2377L15.5859 21.4976H13.4459L16.2377 12.3661H18.9461L21.7771 21.4976H19.5571Z" fill="#049A4F"/>
<path d="M6.42813 16.084H4.44336V19.3838L6.08672 21.0109H9.77857V19.0261H6.42813V16.084Z" fill="#049A4F"/>
</g>
<defs>
<clipPath id="clip0_244_128">
<rect width="25" height="25" fill="white"/>
</clipPath>
</defs>
</svg>
