<svg width="78" height="78" viewBox="0 0 78 78" fill="none" xmlns="http://www.w3.org/2000/svg">
<path fill-rule="evenodd" clip-rule="evenodd" d="M41.9 2.9C41.9 1.57452 42.9745 0.5 44.3 0.5H74.9C76.2255 0.5 77.3 1.57452 77.3 2.9V22.7C77.3 24.0255 76.2255 25.1 74.9 25.1H44.3C42.9745 25.1 41.9 24.0255 41.9 22.7V2.9ZM47.9 6.5V19.1H71.3V6.5H47.9ZM41.9 33.5C41.9 32.1745 42.9745 31.1 44.3 31.1H74.9C76.2255 31.1 77.3 32.1745 77.3 33.5V74.9C77.3 76.2255 76.2255 77.3 74.9 77.3H44.3C42.9745 77.3 41.9 76.2255 41.9 74.9V33.5ZM47.9 37.1V71.3H71.3V37.1H47.9Z" fill="#327003"/>
<path fill-rule="evenodd" clip-rule="evenodd" d="M33.5 0.5H2.9C1.57452 0.5 0.5 1.57452 0.5 2.9V44.3C0.5 45.6255 1.57452 46.7 2.9 46.7H33.5C34.8255 46.7 35.9 45.6255 35.9 44.3V2.9C35.9 1.57452 34.8255 0.5 33.5 0.5ZM6.5 6.5V40.7H29.9V6.5H6.5Z" fill="#327003"/>
<path fill-rule="evenodd" clip-rule="evenodd" d="M33.5 52.7H2.9C1.57452 52.7 0.5 53.7745 0.5 55.1V74.9C0.5 76.2255 1.57452 77.3 2.9 77.3H33.5C34.8255 77.3 35.9 76.2255 35.9 74.9V55.1C35.9 53.7745 34.8255 52.7 33.5 52.7ZM6.5 58.7V71.3H29.9V58.7H6.5Z" fill="#327003"/>
<path d="M6.5 40.7V6.5H29.9V40.7H6.5Z" stroke="#327003"/>
<path d="M47.9 19.1V6.5H71.3V19.1H47.9Z" stroke="#327003"/>
<path d="M47.9 71.3V37.1H71.3V71.3H47.9Z" stroke="#327003"/>
<path d="M6.5 71.3V58.7H29.9V71.3H6.5Z" stroke="#327003"/>
<path fill-rule="evenodd" clip-rule="evenodd" d="M41.9 2.9C41.9 1.57452 42.9745 0.5 44.3 0.5H74.9C76.2255 0.5 77.3 1.57452 77.3 2.9V22.7C77.3 24.0255 76.2255 25.1 74.9 25.1H44.3C42.9745 25.1 41.9 24.0255 41.9 22.7V2.9ZM47.9 6.5V19.1H71.3V6.5H47.9ZM41.9 33.5C41.9 32.1745 42.9745 31.1 44.3 31.1H74.9C76.2255 31.1 77.3 32.1745 77.3 33.5V74.9C77.3 76.2255 76.2255 77.3 74.9 77.3H44.3C42.9745 77.3 41.9 76.2255 41.9 74.9V33.5ZM47.9 37.1V71.3H71.3V37.1H47.9Z" stroke="#327003"/>
<path fill-rule="evenodd" clip-rule="evenodd" d="M33.5 0.5H2.9C1.57452 0.5 0.5 1.57452 0.5 2.9V44.3C0.5 45.6255 1.57452 46.7 2.9 46.7H33.5C34.8255 46.7 35.9 45.6255 35.9 44.3V2.9C35.9 1.57452 34.8255 0.5 33.5 0.5ZM6.5 6.5V40.7H29.9V6.5H6.5Z" stroke="#327003"/>
<path fill-rule="evenodd" clip-rule="evenodd" d="M33.5 52.7H2.9C1.57452 52.7 0.5 53.7745 0.5 55.1V74.9C0.5 76.2255 1.57452 77.3 2.9 77.3H33.5C34.8255 77.3 35.9 76.2255 35.9 74.9V55.1C35.9 53.7745 34.8255 52.7 33.5 52.7ZM6.5 58.7V71.3H29.9V58.7H6.5Z" stroke="#327003"/>
</svg>
