<svg width="500" height="500" viewBox="0 0 500 500" fill="none" xmlns="http://www.w3.org/2000/svg">
<path d="M500 250C500 388.071 388.071 500 250 500C111.929 500 0 388.071 0 250C0 111.929 111.929 0 250 0C388.071 0 500 111.929 500 250Z" fill="#D9D9D9"/>
<path d="M92.3074 444.003C105.836 377.423 171.292 326.923 250 326.923C328.708 326.923 394.164 377.423 407.693 444.003C364.674 479.012 309.788 500 250 500C190.212 500 135.326 479.012 92.3074 444.003Z" fill="white"/>
<path d="M326.923 216.346C326.923 259.715 291.766 294.872 248.397 294.872C205.029 294.872 169.872 259.715 169.872 216.346C169.872 172.978 205.029 137.821 248.397 137.821C291.766 137.821 326.923 172.978 326.923 216.346Z" fill="white"/>
</svg>
