<svg width="24" height="24" viewBox="0 0 24 24" fill="none" xmlns="http://www.w3.org/2000/svg">
<path d="M12.0001 24C17.0651 24 21.1857 19.8793 21.1857 14.8142C21.1857 12.7193 19.707 9.61317 16.7908 5.58178C14.6582 2.63386 12.4949 0.233958 12.4732 0.210078C12.3523 0.0763363 12.1805 0 12.0001 0C11.8198 0 11.6479 0.0763363 11.5269 0.210078C11.5054 0.234009 9.34202 2.63386 7.2094 5.58178C4.29311 9.61311 2.81445 12.7193 2.81445 14.8142C2.81435 19.8793 6.93503 24 12.0001 24ZM8.23637 6.33872C9.73773 4.26253 11.2549 2.46307 12.0002 1.60342C12.744 2.46133 14.2569 4.25564 15.7572 6.32958C18.4741 10.0852 19.9101 13.0192 19.9101 14.8142C19.9101 19.1759 16.3616 22.7243 12.0001 22.7243C7.63844 22.7243 4.09002 19.1759 4.09002 14.8142C4.09002 13.0207 5.52383 10.0899 8.23637 6.33872Z" fill="#327003"/>
</svg>
