<svg width="50" height="50" viewBox="0 0 50 50" fill="none" xmlns="http://www.w3.org/2000/svg">
<path fill-rule="evenodd" clip-rule="evenodd" d="M11.7406 25.4094C7.01094 27.5344 3.90625 30.7516 3.90625 34.4422C3.90625 38.4047 7.4875 41.8203 12.8109 43.9266C13.2109 44.0859 13.4078 44.5391 13.25 44.9406C13.0906 45.3422 12.6359 45.5375 12.2359 45.3797C6.20156 42.9922 2.34375 38.9344 2.34375 34.4422C2.34375 29.8719 6.34219 25.75 12.5594 23.3797C12.8391 23.2734 13.1547 23.3359 13.3734 23.5406C13.5906 23.7453 13.6734 24.0562 13.5844 24.3422C13.3609 25.0578 13.2328 25.7391 13.2328 26.3797C13.2328 27.2484 13.3297 28.0937 13.5125 28.9078C13.5812 29.2109 13.4641 29.525 13.2141 29.7078C11.425 31.0266 10.3156 32.6516 10.3156 34.4422C10.3156 36.1609 11.3375 37.7266 12.9984 39.0141C15.7047 41.1125 20.0781 42.45 25 42.45C29.6313 42.45 33.7766 41.2641 36.5078 39.375C36.8625 39.1297 37.35 39.2187 37.5953 39.5734C37.8406 39.9281 37.7516 40.4156 37.3969 40.6609C34.4531 42.6969 29.9937 44.0125 25 44.0125C19.6797 44.0125 14.9672 42.5172 12.0422 40.25C9.95 38.6281 8.75313 36.6062 8.75313 34.4422C8.75313 32.3344 9.89219 30.3578 11.8875 28.7578C11.7453 27.9859 11.6703 27.1922 11.6703 26.3797C11.6703 26.0656 11.6953 25.7406 11.7406 25.4094Z" fill="white"/>
<path fill-rule="evenodd" clip-rule="evenodd" d="M37.5844 28.3563C38.9141 29.3125 39.925 30.4203 40.5422 31.6188C40.7391 32.0031 40.5875 32.4734 40.2031 32.6703C39.8203 32.8688 39.3484 32.7172 39.1516 32.3328C38.5812 31.2235 37.5906 30.2219 36.2984 29.3688C36.0344 29.1938 35.9016 28.8781 35.9625 28.5688C36.0984 27.8609 36.1703 27.1281 36.1703 26.3797C36.1703 25.6859 36.0641 24.9156 35.875 24.0906C35.8109 23.8125 35.9047 23.5219 36.1187 23.3313C36.3312 23.1422 36.6312 23.0844 36.9 23.1797C43.4219 25.5156 47.6562 29.7422 47.6562 34.4422C47.6562 37.4094 46 40.1766 43.1313 42.4C39.0391 45.5719 32.4438 47.6563 25 47.6563C24.5688 47.6563 24.2188 47.3063 24.2188 46.875C24.2188 46.4438 24.5688 46.0938 25 46.0938C32.0453 46.0938 38.3016 44.1672 42.1734 41.1656C44.6125 39.275 46.0938 36.9656 46.0938 34.4422C46.0938 30.5938 42.725 27.2609 37.6516 25.1453C37.7047 25.5766 37.7328 25.9891 37.7328 26.3797C37.7328 27.0516 37.6828 27.7125 37.5844 28.3563Z" fill="white"/>
<path fill-rule="evenodd" clip-rule="evenodd" d="M25.2234 2.54376C24.9734 2.3172 24.6047 2.2797 24.3109 2.44845C24.0187 2.6172 23.8672 2.9547 23.9375 3.28595C24.0703 3.91876 23.8625 4.68751 23.4828 5.56876C22.8156 7.11876 21.5906 8.94376 20.1875 10.8969C18.0109 13.9297 15.4125 17.2578 13.6797 20.3438C12.4578 22.5219 11.6703 24.5953 11.6703 26.3797C11.6703 33.5719 17.5094 39.4109 24.7015 39.4109C31.8937 39.4109 37.7328 33.5719 37.7328 26.3797C37.7328 23.4953 36.1515 19.4344 34.0515 15.4625C30.9484 9.59688 26.7515 3.91564 25.2234 2.54376ZM25.3453 4.97501C25.2422 5.36095 25.1 5.76564 24.9172 6.18751C24.214 7.82032 22.9344 9.75001 21.4562 11.8078C19.314 14.7953 16.7484 18.0688 15.0422 21.1094C13.9719 23.0172 13.2328 24.8172 13.2328 26.3797C13.2328 32.7094 18.3719 37.8484 24.7015 37.8484C31.0312 37.8484 36.1703 32.7094 36.1703 26.3797C36.1703 23.6828 34.6328 19.9063 32.6703 16.1922C30.2765 11.6672 27.2265 7.24376 25.3453 4.97501Z" fill="white"/>
<path fill-rule="evenodd" clip-rule="evenodd" d="M26.6859 35.1469C27.2156 35.0625 27.7328 34.9062 28.2343 34.7156C33.5156 32.7172 34.2844 26.6094 33.5859 21.7641C33.525 21.3375 33.1281 21.0406 32.7015 21.1016C32.275 21.1625 31.9781 21.5594 32.039 21.9859C32.3484 24.1328 32.3734 26.5719 31.725 28.6969C31.114 30.7 29.889 32.4187 27.6812 33.2547C27.2797 33.4078 26.864 33.5359 26.439 33.6031C26.014 33.6719 25.7234 34.0719 25.7906 34.4984C25.8594 34.9234 26.2594 35.2141 26.6859 35.1469Z" fill="white"/>
</svg>
