<svg width="98" height="99" viewBox="0 0 98 99" fill="none" xmlns="http://www.w3.org/2000/svg">
<g filter="url(#filter0_d_7_279)">
<path fill-rule="evenodd" clip-rule="evenodd" d="M69.4348 53.9371C68.3304 53.3845 62.9005 50.7134 61.888 50.345C60.8757 49.9767 60.1396 49.7924 59.4033 50.8977C58.667 52.003 56.5504 54.4898 55.9061 55.2267C55.2619 55.9634 54.6178 56.0558 53.5133 55.5029C52.4089 54.9505 48.8503 53.7845 44.6319 50.0229C41.3487 47.0956 39.1321 43.4797 38.4877 42.3744C37.8436 41.2691 38.4192 40.6716 38.9722 40.1211C39.4688 39.6266 40.0765 38.8317 40.6287 38.187C41.1809 37.5422 41.365 37.0817 41.7332 36.3449C42.1013 35.608 41.9172 34.9632 41.641 34.4106C41.365 33.8579 39.1563 28.4236 38.2359 26.213C37.3396 24.0601 36.429 24.3514 35.751 24.3176C35.1075 24.2856 34.3706 24.2788 33.6343 24.2788C32.898 24.2788 31.7016 24.5552 30.6891 25.6603C29.6768 26.7656 26.8237 29.4369 26.8237 34.8711C26.8237 40.3054 30.7812 45.5555 31.3335 46.2924C31.8857 47.0293 39.1213 58.1813 50.2002 62.9636C52.8352 64.1012 54.8925 64.7804 56.4963 65.2895C59.1421 66.1296 61.5498 66.0111 63.4527 65.7268C65.5746 65.4099 69.9871 63.0557 70.9074 60.4768C71.8276 57.8978 71.8276 55.6872 71.5516 55.2267C71.2756 54.7662 70.5393 54.4898 69.4348 53.9371M49.2832 81.443H49.2683C42.676 81.4404 36.2103 79.6702 30.5698 76.3239L29.2282 75.5278L15.3236 79.1742L19.035 65.6217L18.1614 64.2323C14.4839 58.3848 12.5417 51.6263 12.5444 44.6868C12.5525 24.4373 29.0333 7.96294 49.2978 7.96294C59.1105 7.96676 68.3346 11.792 75.2709 18.7338C82.2071 25.6757 86.0249 34.9033 86.0211 44.7166C86.0128 64.9675 69.5323 81.443 49.2832 81.443M80.55 13.4587C72.2048 5.10657 61.1068 0.504695 49.2827 0.500024C24.9199 0.500024 5.0914 20.3209 5.08163 44.6839C5.07845 52.4718 7.11368 60.0738 10.9816 66.7744L4.71094 89.6719L28.1426 83.5276C34.5986 87.0477 41.8673 88.9027 49.2651 88.9059H49.2832H49.2834C73.6439 88.9059 93.4741 69.0825 93.4841 44.7192C93.4885 32.9125 88.8954 21.8107 80.55 13.4587" fill="#16631F"/>
<path d="M61.888 50.345L61.717 50.8149L61.717 50.8149L61.888 50.345ZM55.9061 55.2267L55.5297 54.8976L55.5297 54.8976L55.9061 55.2267ZM53.5133 55.5029L53.737 55.0558L53.7371 55.0558L53.5133 55.5029ZM44.6319 50.0229L44.9646 49.6497L44.9646 49.6498L44.6319 50.0229ZM38.4878 42.3744L38.0558 42.6262L38.0558 42.6261L38.4878 42.3744ZM38.9722 40.1211L39.325 40.4754L39.325 40.4755L38.9722 40.1211ZM41.7332 36.3449L42.1804 36.5684L42.1804 36.5684L41.7332 36.3449ZM41.641 34.4105L41.1938 34.6341L41.1937 34.6339L41.641 34.4105ZM38.2359 26.213L38.6975 26.0208L38.6975 26.0208L38.2359 26.213ZM35.751 24.3176L35.7262 24.817H35.7262L35.751 24.3176ZM30.6891 25.6603L30.3204 25.3226L30.3204 25.3225L30.6891 25.6603ZM50.2002 62.9636L50.3983 62.5045L50.3984 62.5045L50.2002 62.9636ZM56.4963 65.2895L56.6476 64.8129L56.6476 64.8129L56.4963 65.2895ZM63.4527 65.7268L63.3788 65.2323H63.3788L63.4527 65.7268ZM70.9074 60.4768L71.3784 60.6448L71.3783 60.6448L70.9074 60.4768ZM49.2683 81.443V81.943H49.2681L49.2683 81.443ZM30.5698 76.3239L30.3146 76.7539L30.3146 76.7539L30.5698 76.3239ZM29.2282 75.5278L29.1013 75.0441L29.3035 74.9911L29.4833 75.0978L29.2282 75.5278ZM15.3236 79.1742L15.4504 79.6579L14.6126 79.8776L14.8414 79.0422L15.3236 79.1742ZM19.035 65.6217L19.4583 65.3555L19.5754 65.5417L19.5173 65.7537L19.035 65.6217ZM18.1614 64.2323L18.5846 63.9661L18.5846 63.9662L18.1614 64.2323ZM12.5444 44.6868L12.0444 44.6866V44.6866L12.5444 44.6868ZM49.2978 7.96294V7.46294H49.298L49.2978 7.96294ZM75.2709 18.7338L75.6246 18.3803L75.6246 18.3804L75.2709 18.7338ZM86.0211 44.7166L86.5211 44.7168V44.7168L86.0211 44.7166ZM49.2827 0.500023V2.28882e-05H49.2829L49.2827 0.500023ZM5.08163 44.6839L5.58163 44.6841V44.6841L5.08163 44.6839ZM10.9816 66.7744L11.4146 66.5244L11.519 66.7052L11.4638 66.9065L10.9816 66.7744ZM4.71094 89.6719L4.83776 90.1555L3.99991 90.3752L4.22869 89.5398L4.71094 89.6719ZM28.1426 83.5276L28.0158 83.0439L28.2077 82.9936L28.3819 83.0886L28.1426 83.5276ZM49.2651 88.9059V89.4059L49.2649 89.4059L49.2651 88.9059ZM93.4841 44.7192L93.9841 44.7194V44.7194L93.4841 44.7192ZM69.4348 53.9371L69.2111 54.3843C68.6613 54.1092 67.0299 53.3043 65.4096 52.5223C63.7734 51.7326 62.193 50.9881 61.717 50.8149L61.888 50.345L62.0589 49.8751C62.5954 50.0703 64.2363 50.8456 65.8443 51.6217C67.4682 52.4055 69.1039 53.2125 69.6586 53.49L69.4348 53.9371ZM61.888 50.345L61.717 50.8149C61.1957 50.6252 60.867 50.5348 60.5989 50.5655C60.3862 50.5898 60.1339 50.7028 59.8194 51.1749L59.4033 50.8977L58.9872 50.6205C59.409 49.9872 59.8929 49.6397 60.4853 49.572C61.0224 49.5105 61.5679 49.6965 62.0589 49.8752L61.888 50.345ZM59.4033 50.8977L59.8194 51.1749C59.0614 52.3128 56.9211 54.8255 56.2825 55.5558L55.9061 55.2267L55.5297 54.8976C56.1798 54.1541 58.2726 51.6931 58.9872 50.6205L59.4033 50.8977ZM55.9061 55.2267L56.2825 55.5558C55.9126 55.9788 55.487 56.2787 54.9425 56.3448C54.4186 56.4084 53.8747 56.243 53.2895 55.9501L53.5133 55.5029L53.7371 55.0558C54.2564 55.3158 54.5868 55.3806 54.8221 55.3521C55.0368 55.326 55.2554 55.2113 55.5297 54.8976L55.9061 55.2267ZM53.5133 55.5029L53.2896 55.9501C52.234 55.4221 48.5823 54.2154 44.2991 50.3961L44.6319 50.0229L44.9646 49.6498C49.1183 53.3535 52.5837 54.4789 53.737 55.0558L53.5133 55.5029ZM44.6319 50.0229L44.2991 50.3961C40.9566 47.4159 38.7084 43.7457 38.0558 42.6262L38.4878 42.3744L38.9197 42.1226C39.5558 43.2137 41.7407 46.7753 44.9646 49.6497L44.6319 50.0229ZM38.4878 42.3744L38.0558 42.6261C37.674 41.9712 37.6177 41.389 37.8124 40.8654C37.9893 40.3897 38.3563 40.0287 38.6195 39.7668L38.9722 40.1211L39.325 40.4755C39.0351 40.764 38.8378 40.9771 38.7497 41.214C38.6794 41.4031 38.6573 41.6723 38.9197 42.1226L38.4878 42.3744ZM38.9722 40.1211L38.6194 39.7668C39.0988 39.2895 39.6646 38.544 40.2489 37.8617L40.6287 38.187L41.0085 38.5122C40.4884 39.1195 39.8389 39.9637 39.325 40.4754L38.9722 40.1211ZM40.6287 38.187L40.2489 37.8617C40.7517 37.2746 40.9063 36.881 41.2859 36.1214L41.7332 36.3449L42.1804 36.5684C41.8237 37.2823 41.6101 37.8097 41.0085 38.5122L40.6287 38.187ZM41.7332 36.3449L41.2859 36.1215C41.5521 35.5886 41.4389 35.1245 41.1938 34.6341L41.641 34.4105L42.0883 34.187C42.3956 34.8019 42.6505 35.6274 42.1804 36.5684L41.7332 36.3449ZM41.641 34.4105L41.1937 34.6339C41.045 34.3363 40.4131 32.8124 39.7178 31.1239C39.0153 29.4179 38.2341 27.5093 37.7744 26.4051L38.2359 26.213L38.6975 26.0208C39.1582 27.1272 39.9415 29.0411 40.6425 30.7431C41.3506 32.4626 41.961 33.9322 42.0883 34.1871L41.641 34.4105ZM38.2359 26.213L37.7744 26.4051C37.3481 25.3813 36.9619 25.0474 36.698 24.9227C36.393 24.7787 36.1878 24.84 35.7262 24.817L35.751 24.3176L35.7759 23.8183C35.9922 23.829 36.5812 23.7616 37.1251 24.0185C37.7101 24.2949 38.2275 24.8918 38.6975 26.0208L38.2359 26.213ZM35.751 24.3176L35.7262 24.817C35.0958 24.7856 34.3693 24.7788 33.6343 24.7788V24.2788V23.7788C34.3719 23.7788 35.1192 23.7855 35.7759 23.8183L35.751 24.3176ZM33.6343 24.2788V24.7788C33.0127 24.7788 31.9596 25.0138 31.0577 25.9981L30.6891 25.6603L30.3204 25.3225C31.4436 24.0966 32.7833 23.7788 33.6343 23.7788V24.2788ZM30.6891 25.6603L31.0578 25.998C30.0479 27.1007 27.3237 29.6455 27.3237 34.8711H26.8237H26.3237C26.3237 29.2284 29.3057 26.4305 30.3204 25.3226L30.6891 25.6603ZM26.8237 34.8711H27.3237C27.3237 37.4757 28.2751 40.0649 29.3173 42.1168C30.3559 44.1617 31.4627 45.631 31.7336 45.9926L31.3335 46.2924L30.9333 46.5922C30.652 46.2168 29.5039 44.6926 28.4257 42.5697C27.3511 40.4538 26.3237 37.7008 26.3237 34.8711H26.8237ZM31.3335 46.2924L31.7336 45.9926C32.3126 46.7653 39.4673 57.786 50.3983 62.5045L50.2002 62.9636L50.002 63.4227C38.7752 58.5765 31.4588 47.2934 30.9333 46.5922L31.3335 46.2924ZM50.2002 62.9636L50.3984 62.5045C53.0115 63.6327 55.051 64.3061 56.6476 64.8129L56.4963 65.2895L56.345 65.766C54.734 65.2546 52.6589 64.5697 50.002 63.4226L50.2002 62.9636ZM56.4963 65.2895L56.6476 64.8129C59.194 65.6215 61.5175 65.5104 63.3788 65.2323L63.4527 65.7268L63.5266 66.2214C61.582 66.5119 59.0903 66.6377 56.345 65.766L56.4963 65.2895ZM63.4527 65.7268L63.3788 65.2323C64.3461 65.0878 65.9124 64.4572 67.3609 63.5291C68.8214 62.5932 70.0342 61.4359 70.4365 60.3087L70.9074 60.4768L71.3783 60.6448C70.8603 62.0966 69.4067 63.4059 67.9004 64.371C66.3821 65.3439 64.6812 66.0489 63.5266 66.2214L63.4527 65.7268ZM70.9074 60.4768L70.4365 60.3088C70.882 59.0602 71.103 57.9049 71.1799 57.0143C71.2184 56.5685 71.2201 56.1966 71.1983 55.9177C71.1874 55.778 71.1711 55.6685 71.1531 55.5884C71.1335 55.5014 71.1178 55.4755 71.1227 55.4838L71.5516 55.2267L71.9805 54.9697C72.1143 55.1931 72.1704 55.5215 72.1953 55.8396C72.2223 56.1853 72.2182 56.6136 72.1762 57.1003C72.0921 58.0749 71.8531 59.3144 71.3784 60.6448L70.9074 60.4768ZM71.5516 55.2267L71.1227 55.4838C71.0582 55.3761 70.9101 55.2451 70.5633 55.0548C70.2153 54.8638 69.7922 54.6751 69.2111 54.3843L69.4348 53.9371L69.6586 53.49C70.1819 53.7519 70.6792 53.9777 71.0445 54.1782C71.4109 54.3793 71.769 54.6169 71.9805 54.9697L71.5516 55.2267ZM49.2832 81.443V81.943H49.2683V81.443V80.943H49.2832V81.443ZM49.2683 81.443L49.2681 81.943C42.5866 81.9404 36.0327 80.1462 30.3146 76.7539L30.5698 76.3239L30.8249 75.8939C36.3878 79.1941 42.7655 80.9405 49.2685 80.943L49.2683 81.443ZM30.5698 76.3239L30.3146 76.7539L28.973 75.9577L29.2282 75.5278L29.4833 75.0978L30.8249 75.8939L30.5698 76.3239ZM29.2282 75.5278L29.355 76.0114L15.4504 79.6579L15.3236 79.1742L15.1968 78.6906L29.1013 75.0441L29.2282 75.5278ZM15.3236 79.1742L14.8414 79.0422L18.5528 65.4896L19.035 65.6217L19.5173 65.7537L15.8058 79.3063L15.3236 79.1742ZM19.035 65.6217L18.6118 65.8878L17.7381 64.4985L18.1614 64.2323L18.5846 63.9662L19.4583 65.3555L19.035 65.6217ZM18.1614 64.2323L17.7381 64.4985C14.0102 58.5708 12.0416 51.7199 12.0444 44.6866L12.5444 44.6868L13.0444 44.687C13.0417 51.5327 14.9576 58.1988 18.5846 63.9661L18.1614 64.2323ZM12.5444 44.6868L12.0444 44.6866C12.0526 24.1609 28.7573 7.46294 49.2978 7.46294V7.96294V8.46294C29.3092 8.46294 13.0524 24.7137 13.0444 44.687L12.5444 44.6868ZM49.2978 7.96294L49.298 7.46294C59.2433 7.46682 68.5946 11.3448 75.6246 18.3803L75.2709 18.7338L74.9172 19.0872C68.0746 12.2392 58.9777 8.46671 49.2976 8.46294L49.2978 7.96294ZM75.2709 18.7338L75.6246 18.3804C82.6545 25.4161 86.525 34.7709 86.5211 44.7168L86.0211 44.7166L85.5211 44.7164C85.5249 35.0357 81.7597 25.9353 74.9172 19.0872L75.2709 18.7338ZM86.0211 44.7166L86.5211 44.7168C86.5127 65.2438 69.8084 81.943 49.2832 81.943V81.443V80.943C69.2562 80.943 85.5129 64.6913 85.5211 44.7164L86.0211 44.7166ZM80.55 13.4587L80.1963 13.8121C71.945 5.55386 60.9742 1.00465 49.2825 1.00002L49.2827 0.500023L49.2829 2.28882e-05C61.2395 0.00474548 72.4647 4.65927 80.9037 13.1053L80.55 13.4587ZM49.2827 0.500023V1.00002C25.196 1.00002 5.59129 20.5971 5.58163 44.6841L5.08163 44.6839L4.58164 44.6837C4.59151 20.0446 24.6438 2.28882e-05 49.2827 2.28882e-05V0.500023ZM5.08163 44.6839L5.58163 44.6841C5.57849 52.3844 7.59076 59.9002 11.4146 66.5244L10.9816 66.7744L10.5486 67.0244C6.6366 60.2475 4.57841 52.5591 4.58164 44.6837L5.08163 44.6839ZM10.9816 66.7744L11.4638 66.9065L5.19318 89.8039L4.71094 89.6719L4.22869 89.5398L10.4993 66.6423L10.9816 66.7744ZM4.71094 89.6719L4.58411 89.1882L28.0158 83.0439L28.1426 83.5276L28.2694 84.0112L4.83776 90.1555L4.71094 89.6719ZM28.1426 83.5276L28.3819 83.0886C34.7644 86.5686 41.9508 88.4027 49.2653 88.4059L49.2651 88.9059L49.2649 89.4059C41.7838 89.4026 34.4328 87.5268 27.9032 83.9665L28.1426 83.5276ZM49.2651 88.9059V88.4059H49.2832V88.9059V89.4059H49.2651V88.9059ZM49.2832 88.9059V88.4059H49.2834V88.9059V89.4059H49.2832V88.9059ZM49.2834 88.9059V88.4059C73.3678 88.4059 92.9742 68.8062 92.9841 44.719L93.4841 44.7192L93.9841 44.7194C93.974 69.3587 73.92 89.4059 49.2834 89.4059V88.9059ZM93.4841 44.7192L92.9841 44.719C92.9885 33.0449 88.4479 22.0703 80.1963 13.8121L80.55 13.4587L80.9037 13.1053C89.3428 21.5511 93.9886 32.7801 93.9841 44.7194L93.4841 44.7192Z" fill="#16631F"/>
</g>
<defs>
<filter id="filter0_d_7_279" x="0" y="0" width="97.9841" height="98.3752" filterUnits="userSpaceOnUse" color-interpolation-filters="sRGB">
<feFlood flood-opacity="0" result="BackgroundImageFix"/>
<feColorMatrix in="SourceAlpha" type="matrix" values="0 0 0 0 0 0 0 0 0 0 0 0 0 0 0 0 0 0 127 0" result="hardAlpha"/>
<feOffset dy="4"/>
<feGaussianBlur stdDeviation="2"/>
<feComposite in2="hardAlpha" operator="out"/>
<feColorMatrix type="matrix" values="0 0 0 0 0 0 0 0 0 0 0 0 0 0 0 0 0 0 0.25 0"/>
<feBlend mode="normal" in2="BackgroundImageFix" result="effect1_dropShadow_7_279"/>
<feBlend mode="normal" in="SourceGraphic" in2="effect1_dropShadow_7_279" result="shape"/>
</filter>
</defs>
</svg>
